<mxfile host="65bd71144e">
    <diagram id="LExLPIku3apXsEp7ZTF4" name="ページ1">
        <mxGraphModel dx="387" dy="399" grid="1" gridSize="10" guides="1" tooltips="1" connect="1" arrows="1" fold="1" page="1" pageScale="1" pageWidth="827" pageHeight="1169" math="0" shadow="0">
            <root>
                <mxCell id="0"/>
                <mxCell id="1" parent="0"/>
                <mxCell id="2" value="学生" style="shape=umlActor;verticalLabelPosition=bottom;verticalAlign=top;html=1;outlineConnect=0;" vertex="1" parent="1">
                    <mxGeometry x="120" y="20" width="30" height="60" as="geometry"/>
                </mxCell>
                <mxCell id="5" value="" style="endArrow=block;dashed=1;endFill=0;endSize=12;html=1;" edge="1" parent="1">
                    <mxGeometry width="160" relative="1" as="geometry">
                        <mxPoint x="134.70999999999998" y="200" as="sourcePoint"/>
                        <mxPoint x="134.70999999999998" y="200" as="targetPoint"/>
                    </mxGeometry>
                </mxCell>
                <mxCell id="7" value="" style="endArrow=none;dashed=1;html=1;" edge="1" parent="1" source="8">
                    <mxGeometry width="50" height="50" relative="1" as="geometry">
                        <mxPoint x="135" y="460" as="sourcePoint"/>
                        <mxPoint x="135" y="100" as="targetPoint"/>
                        <Array as="points"/>
                    </mxGeometry>
                </mxCell>
                <mxCell id="9" value="" style="shape=umlBoundary;whiteSpace=wrap;html=1;fillColor=#d5e8d4;strokeColor=#82b366;" vertex="1" parent="1">
                    <mxGeometry x="170" y="20" width="60" height="50" as="geometry"/>
                </mxCell>
                <mxCell id="10" value="" style="endArrow=none;dashed=1;html=1;" edge="1" parent="1">
                    <mxGeometry width="50" height="50" relative="1" as="geometry">
                        <mxPoint x="210" y="100" as="sourcePoint"/>
                        <mxPoint x="210" y="181.52385602678572" as="targetPoint"/>
                        <Array as="points">
                            <mxPoint x="210" y="80"/>
                        </Array>
                    </mxGeometry>
                </mxCell>
                <mxCell id="11" value="" style="endArrow=none;dashed=1;html=1;" edge="1" parent="1" source="34" target="8">
                    <mxGeometry width="50" height="50" relative="1" as="geometry">
                        <mxPoint x="135" y="560" as="sourcePoint"/>
                        <mxPoint x="135" y="100" as="targetPoint"/>
                        <Array as="points"/>
                    </mxGeometry>
                </mxCell>
                <mxCell id="8" value="" style="html=1;points=[[0,0,0,0,5],[0,1,0,0,-5],[1,0,0,0,5],[1,1,0,0,-5]];perimeter=orthogonalPerimeter;outlineConnect=0;targetShapes=umlLifeline;portConstraint=eastwest;newEdgeStyle={&quot;curved&quot;:0,&quot;rounded&quot;:0};" vertex="1" parent="1">
                    <mxGeometry x="130" y="110" width="10" height="80" as="geometry"/>
                </mxCell>
                <mxCell id="13" value="" style="endArrow=none;dashed=1;html=1;" edge="1" parent="1" target="12">
                    <mxGeometry width="50" height="50" relative="1" as="geometry">
                        <mxPoint x="210" y="550" as="sourcePoint"/>
                        <mxPoint x="210" y="181.52385602678572" as="targetPoint"/>
                        <Array as="points">
                            <mxPoint x="210" y="470"/>
                        </Array>
                    </mxGeometry>
                </mxCell>
                <mxCell id="12" value="" style="html=1;points=[[0,0,0,0,5],[0,1,0,0,-5],[1,0,0,0,5],[1,1,0,0,-5]];perimeter=orthogonalPerimeter;outlineConnect=0;targetShapes=umlLifeline;portConstraint=eastwest;newEdgeStyle={&quot;curved&quot;:0,&quot;rounded&quot;:0};" vertex="1" parent="1">
                    <mxGeometry x="200" y="130" width="20" height="60" as="geometry"/>
                </mxCell>
                <mxCell id="14" value="" style="endArrow=open;endFill=1;endSize=12;html=1;exitX=1.189;exitY=0.3;exitDx=0;exitDy=0;exitPerimeter=0;" edge="1" parent="1" source="8" target="12">
                    <mxGeometry width="160" relative="1" as="geometry">
                        <mxPoint x="150" y="135" as="sourcePoint"/>
                        <mxPoint x="190" y="150" as="targetPoint"/>
                    </mxGeometry>
                </mxCell>
                <mxCell id="15" value="" style="shape=umlBoundary;whiteSpace=wrap;html=1;fillColor=#d5e8d4;strokeColor=#82b366;" vertex="1" parent="1">
                    <mxGeometry x="260" y="20" width="60" height="50" as="geometry"/>
                </mxCell>
                <mxCell id="17" value="" style="ellipse;shape=umlControl;whiteSpace=wrap;html=1;fillColor=#f8cecc;strokeColor=#b85450;" vertex="1" parent="1">
                    <mxGeometry x="350" y="12.5" width="50" height="57.5" as="geometry"/>
                </mxCell>
                <mxCell id="18" value="" style="ellipse;shape=umlEntity;whiteSpace=wrap;html=1;fillColor=#dae8fc;strokeColor=#6c8ebf;" vertex="1" parent="1">
                    <mxGeometry x="430" y="16.25" width="50" height="50" as="geometry"/>
                </mxCell>
                <mxCell id="19" value="" style="endArrow=none;dashed=1;html=1;" edge="1" parent="1" source="28">
                    <mxGeometry width="50" height="50" relative="1" as="geometry">
                        <mxPoint x="300" y="543" as="sourcePoint"/>
                        <mxPoint x="300" y="80" as="targetPoint"/>
                    </mxGeometry>
                </mxCell>
                <mxCell id="20" value="" style="endArrow=none;dashed=1;html=1;" edge="1" parent="1">
                    <mxGeometry width="50" height="50" relative="1" as="geometry">
                        <mxPoint x="370" y="540" as="sourcePoint"/>
                        <mxPoint x="370" y="77" as="targetPoint"/>
                    </mxGeometry>
                </mxCell>
                <mxCell id="21" value="" style="endArrow=none;dashed=1;html=1;" edge="1" parent="1">
                    <mxGeometry width="50" height="50" relative="1" as="geometry">
                        <mxPoint x="460" y="543" as="sourcePoint"/>
                        <mxPoint x="460" y="80" as="targetPoint"/>
                    </mxGeometry>
                </mxCell>
                <mxCell id="22" value="メニュー画面" style="text;html=1;align=center;verticalAlign=middle;whiteSpace=wrap;rounded=0;" vertex="1" parent="1">
                    <mxGeometry x="160" y="66.25" width="80" height="30" as="geometry"/>
                </mxCell>
                <mxCell id="24" value="学生登録画面" style="text;html=1;align=center;verticalAlign=middle;whiteSpace=wrap;rounded=0;" vertex="1" parent="1">
                    <mxGeometry x="250" y="66.25" width="90" height="30" as="geometry"/>
                </mxCell>
                <mxCell id="26" value="学生情報登録" style="text;html=1;align=center;verticalAlign=middle;whiteSpace=wrap;rounded=0;" vertex="1" parent="1">
                    <mxGeometry x="330" y="70" width="90" height="30" as="geometry"/>
                </mxCell>
                <mxCell id="27" value="学生オブジェクト" style="text;html=1;align=center;verticalAlign=middle;whiteSpace=wrap;rounded=0;" vertex="1" parent="1">
                    <mxGeometry x="420" y="66.25" width="100" height="30" as="geometry"/>
                </mxCell>
                <mxCell id="29" value="" style="endArrow=none;dashed=1;html=1;" edge="1" parent="1" source="33" target="28">
                    <mxGeometry width="50" height="50" relative="1" as="geometry">
                        <mxPoint x="300" y="543" as="sourcePoint"/>
                        <mxPoint x="300" y="80" as="targetPoint"/>
                    </mxGeometry>
                </mxCell>
                <mxCell id="28" value="" style="html=1;points=[[0,0,0,0,5],[0,1,0,0,-5],[1,0,0,0,5],[1,1,0,0,-5]];perimeter=orthogonalPerimeter;outlineConnect=0;targetShapes=umlLifeline;portConstraint=eastwest;newEdgeStyle={&quot;curved&quot;:0,&quot;rounded&quot;:0};" vertex="1" parent="1">
                    <mxGeometry x="290" y="140" width="20" height="40" as="geometry"/>
                </mxCell>
                <mxCell id="30" value="" style="endArrow=open;endFill=1;endSize=12;html=1;" edge="1" parent="1" source="12">
                    <mxGeometry width="160" relative="1" as="geometry">
                        <mxPoint x="232" y="140" as="sourcePoint"/>
                        <mxPoint x="290" y="140" as="targetPoint"/>
                    </mxGeometry>
                </mxCell>
                <mxCell id="35" value="" style="endArrow=none;dashed=1;html=1;" edge="1" parent="1" target="34">
                    <mxGeometry width="50" height="50" relative="1" as="geometry">
                        <mxPoint x="135" y="560" as="sourcePoint"/>
                        <mxPoint x="135" y="190" as="targetPoint"/>
                        <Array as="points">
                            <mxPoint x="135" y="410"/>
                            <mxPoint x="135" y="350"/>
                        </Array>
                    </mxGeometry>
                </mxCell>
                <mxCell id="34" value="" style="html=1;points=[[0,0,0,0,5],[0,1,0,0,-5],[1,0,0,0,5],[1,1,0,0,-5]];perimeter=orthogonalPerimeter;outlineConnect=0;targetShapes=umlLifeline;portConstraint=eastwest;newEdgeStyle={&quot;curved&quot;:0,&quot;rounded&quot;:0};" vertex="1" parent="1">
                    <mxGeometry x="125" y="240" width="20" height="90" as="geometry"/>
                </mxCell>
                <mxCell id="36" value="" style="endArrow=none;dashed=1;html=1;" edge="1" parent="1" target="33">
                    <mxGeometry width="50" height="50" relative="1" as="geometry">
                        <mxPoint x="300" y="543" as="sourcePoint"/>
                        <mxPoint x="300" y="180" as="targetPoint"/>
                    </mxGeometry>
                </mxCell>
                <mxCell id="33" value="" style="html=1;points=[[0,0,0,0,5],[0,1,0,0,-5],[1,0,0,0,5],[1,1,0,0,-5]];perimeter=orthogonalPerimeter;outlineConnect=0;targetShapes=umlLifeline;portConstraint=eastwest;newEdgeStyle={&quot;curved&quot;:0,&quot;rounded&quot;:0};" vertex="1" parent="1">
                    <mxGeometry x="290" y="250" width="20" height="70" as="geometry"/>
                </mxCell>
                <mxCell id="38" value="" style="endArrow=classic;html=1;entryX=0;entryY=0;entryDx=0;entryDy=5;entryPerimeter=0;" edge="1" parent="1" source="34" target="33">
                    <mxGeometry width="50" height="50" relative="1" as="geometry">
                        <mxPoint x="210" y="300" as="sourcePoint"/>
                        <mxPoint x="260" y="250" as="targetPoint"/>
                    </mxGeometry>
                </mxCell>
                <mxCell id="39" value="学生情報を選択（）" style="text;html=1;align=center;verticalAlign=middle;whiteSpace=wrap;rounded=0;" vertex="1" parent="1">
                    <mxGeometry x="140" y="100" width="60" height="30" as="geometry"/>
                </mxCell>
                <mxCell id="40" value="表示" style="text;html=1;align=center;verticalAlign=middle;whiteSpace=wrap;rounded=0;" vertex="1" parent="1">
                    <mxGeometry x="220" y="110" width="60" height="30" as="geometry"/>
                </mxCell>
                <mxCell id="41" value="" style="shape=image;verticalLabelPosition=bottom;labelBackgroundColor=default;verticalAlign=top;aspect=fixed;imageAspect=0;image=data:image/png,iVBORw0KGgoAAAANSUhEUgAAAc0AAAFZCAYAAAD6snRIAAAAAXNSR0IArs4c6QAAAARnQU1BAACxjwv8YQUAAAAJcEhZcwAADsMAAA7DAcdvqGQAAOSvSURBVHhe7F0HYBzF1X7qXbIsyZZ77wUMtinGEFroJQkJhBAIAdLoJARS/oQUeg2QkJCEGjqETugdF8DduNtyky1btqzeTuV/35udu73VXt9TOe8nvdvZ2dkpb2bem7YzSZs3b+4kRkpKCiUlJVFtQwOVl++gvNw8am1pocKiQiopKpFnABwnJydTW5uH30kVezxKSkqmxsZGam1tFXft7W3yrKioWO7V60mUmppKW7ZsoQYOZ9CgUuro7KS01DTKzs4SfzUyMjJp7dq1tHz5ckrPSOc3k2jEyBE0YcIESklOoc7ODnHHr5PH46G0tDS51/HMyMiQK+7htr29g+PchigIkjm+u3fvpo8//pi+c/Z3JA4dHe1MnUwd/E6nECDvMVJSED/lAfzN4Hht2bKVCgoKKDcv1+sOQHzxPtwhbp/N+4xKikuoqamJtm/fTqeeeiq1tLZ43SL9b775JtXW1lF1dTX179+fampr6LzvneeNtxF1gYqZMzD7a0V3hONkGEB3hOPyLHK4PIscLs8iR7x51kVpdrJCgmBva/VQEiuxgoJ8UWYqIvyLf1Y4UIp4BxZ4D7Rq1Sqqr68XZQHFA8E/efJkr/IB8M7KlStFwcJNe3s75efn06RJkwz/FBAmFGtNTQ37rcIsLikWpdvJ70lEGPAbfqSk8rscDOIBA4JUZuVGx1ED/u+s2EmffvIpnX766ZSZmSlKU6cH7+APgP9QbGalDsANlDN40dbGbsR7XxgaSNeOHeW0a9duSXNpaSkNHTrUX8nyy62eVtpctlmUcXNzCzc4imjAgBL2XzUQfEC8uoYTG+LhpxV2YXRXWrojffGAy7PI4fIscrg8CxdepQmFAGrvVMohOdmiZFhpCQw7qxKC2apUwAcoG7PSBLq4Y6aZlZwG7tG7069D4UQLa3wBbdeBXqt/FMOAirMV1jAApB/KXveGoYTRO7aDuTeL9+C2Cwy+OglrHgF2aYkN4fMsFtilxeVZcLg8ixwuzyJHIvCsi9LsIO5VsudmpSn3YShN8z1gvdeI1F4j1PNgwLuxvG8FFzH8dIGTYQCJVDFdnkUOl2eRo0d5xuiOcFyeBUc8edZFaTY0NsN3MetAcMW9NuurORJiMt0D5udmRGqvEeq5HfQ7uEbzfiD0ZOYD3RFOIqUFcHkWGC7PIofLs8iRCDzrojTrGhqldYn5TB0IriGVphj9I2V+bkak9hqhnpuB4c/UtFQaNHAAtbXbZ1Qs0HFB5mAOOCsrS+wCFYpoAT9BHk+rzJsiHIThZDg6Lbhirhl8w8IoIB7hdCfPPJ42ys7OdnkWAvAT5PIsfMBPULfyzDTN4/LMHjotuDY2Mc9SnOVZ155mU4sEBrM5cHulKUYB38HSuFPQbq2I1F4j1HMzkCnp6RlUUlQo95LICN4PBe0T/G1inmVlZYidc1nvCwPX1ja1+jc7M13CiFc4jc2tqmKmqvyORzguz8KHDqfbeIZV5hBmCcKzxqZmys7KFDuXZ4Ghw3F5FhoJrDTxSUwKlZQUS4sGi4jU61Y/NBvt/MYz+zB1XFTLrJGFWbbYqZaM3XuB/AoUvnIPP0H4lEcUQMiWWbBwAtvrcMyt2eBpASIJh23Zf8DlmRWBwmFb9h9weWZFoHDYlv0H4C/CQVpg5/IsUDhsy/4Dic8zO2j78MJJaKWJOA8aWEIYnRV+hf96UMAbHRf46ytk6p6LgDyLFeAp/AS1tuKzFhSyTBVGnMJpbGw2Clmqw2HAf/yquLs8Cw32mv3Hr4q7y7PQYK/Zf/yquLs8Cw32mv3Hr4q7y7PgSPCeZjKVDighfKgChkXyfiiYvULGIPNhBWYiLEfAHsJPcF4NNXooOzPDmx6noNOCcJD/aJVhOMPRtDB6gmcoBzlZLs+CwuVZ5OghnkEBpKeluDwLgnjzDP66cAgO5ruCn4eO+x4ETrX5QsPlWeSIL8+6Ey7PooHLs8jhZNAJrTR7MI9cuHDhwkUCIqGVpgwZu3DhwoULFw4hoNK0rjQKeW/Trwu8WskekboPBT2H6bC3Lly4cOFiP0Vi9zTNs9suXLhw4cJFjHAXArlw4cKFCxdhwlWaLly4cOHCRZhwlaYLFy5cuHARJlyl6cKFCxcuXIQJV2m6cOHChQsXYcJVmi5cuHDhwkWYcJWmCxcuXLhwESZcpenChQsXLlyECVdpunDhwoULF2Ei2bx1Xcit8kLtRxfmfnVOb5cXLnoqXBcuXLhwkRhwe5ouXLhw4cJFmHCVposeh9v/jxwuzyKHy7PI4fKsKxJaaer92nF1mnoadnGKlqKBnT+hKBDwyM59tBQIdm6jJX9AtPjEi537aCkQ8MjOfbQUHDp94ZC9/6BgsHMfLQUCHtm5BymEnxZQINi5jZZig39aogGiYBevaCkQ7NxGS8Fg5z5SSmCliYLCKTR+lcmFi2hgFj5WYiR18A/IuE8oWNMbgoQXfRE2aZE87YvQcbemx4UTcIdn4wS3iCYiOrnxBeowriqXfQ2yRBBOljToxMlVPVPp9/FA8YEpSb9ner8PQDWqTWnQpO1CIhw38YOKv5l8+dKVfO5cRAdXaToMLNBN4RKZyoQrKNmhEtqzVXP/ALIKlUIT7pO8YsZH6k9Vn6RO2GloQdt3c0sLBUm/JIPTp68ClXb9B7PiEaDT3TfS70uRz+wPpENT7wXinszCB4pRx7XT+6fu0NBJFgqWXhehoOtHQsNc5KHUvGTYOQHtF8a8m1o8VFPXQLX1jXJtbvWI4rSOjYdFhr9icjjOgQDemKGVvybr82gR/7RwZBnhhgPX6g1AvaV6VG1cUTgPqd1wo8WOQlf/YaPJWTjF+0BI4gBAGsmsNVOSOP1C7Wzm1CelsEMWv9xYUIR4sXDGe7gyz3xk9wfoa3wh4QUJyPwI6cKfN/3eLNaugsW4e9JjhYoi87nTQ51JXFaN/FGUKpRi3CcxdeCvs90/rkY6dXJD8cxJ9ATPYkVSWVlZpzA6mVuLfG1sbpWrHQFwp5Fs6UKxK/6x2FnuNSK1B4I9s8Lj8VBaWioVFxdRW5uam0Cl1n7g4kTBgJ+tra2UnZ0t5jTWKo8/8RT96lfXU79+/aixsYnNv6JLLrqQWjkekaRBA+8gPe3t7ZSVlcnX+My1IJzm5ibmWzqlpLD44LS0t3fSo48+SqtXr6aU1BSac/gcOuO0Uwgs7eiILj3gU3Nzs/Cso5M9ikPN0TxDHMPiGScDxTk5uV2UY23jPtqzr5JqGmo531q5DLFQYkcZaRmUn9uPSvoPpP45pfJqbWMj8yyFUlOSqZPD8wG80WRFIHt7gGctLS1x4pkS+KjPnZ2tbAK1U2XVbqpkHrQg/e1tnDYu36npVFjQn/rlF1Fh/gBKo3R+3s5xauPUgEOQFfAT0Gn0TyfyponzP515iXKGtMUFKGcGzzqZZ3bhwC6D5QSwdsHnlFGQRyMmjKNWTi+gyreOv31aVDmjuNbNZOGZr24iPYCkiBsz6SnpYt6xq5Yqdu+juoZGLi+tHC/kWQplZaZTfl4mDR9WSv1yMlh1ci5zYz4pGQrVlCbwjPMmKztL8jseORNx3YwSCMcsz5wqZwmtNOG+f//+nCntYgemReJHOICfZqWZzYXz7nvvo2uuvMJwQfR/v/8D/fGG3wlvowF4jjBQyDIzUchUepwGeIMKk5aexgoglcNrp1/9+tc0ZPAQ+uY3v8ENgEZ6+OFHuCFSTL/85S9ZkUCwRNcqbWnhipmleOZUYfZB5TPKAPzO5IrZwRXTLxiMO8o9RH0HpaQnU0tnI63buJL2Ve+mdk5bWkY6ZbDwSElLoxQWLixFqJWFcCvzqLmJ+ZSSRyOHj6fc3HzKz8kj1rfckuhkpavLmP8VwfmiALvwyyLElyjNsHgW6JkpPDXuyk7ZDmZOXnuqh7ZsW0cVFVuZd62S/lSmTC7bqSx02lk5tnK+eTgezU1N/G46DRo4moYOGc7lnpV5axulsH8ihMX7rmmU4LiX2sT8S09P57LtrNKUEHXS/Himer2wRY7jPo3DTmXFXb5yFX315RLKLcin8bNnUG5JEbWLe0QW8VVpwDC8yDiGjjGetXraRDllZWU5XjelIcKBJbGsBc/TmGdQAGg4YQwkiZVlK4e9ctUazrd9HH4q5eYVUn5BIcukHHabTB5WjvX1NUJNjTWUlZFM48eNpmFDBnKmc9kXFcqBoFzxnzRojXKmueYkdN1UStN5nml45Rnqr6s0QwOZAkaVDiiWe7ALZPUjfB/tAT+bmlAxM7x+PfzY4/TDC85nzyFo2+nmW2+n63/5CymakYan3Xu4xwcllZWRJvdOF2QAYSH/UcjQY37y6Wdp586d9POrr5S465z/2WVX0AUXXECHzDrYsPEhWLx0WuCm0cQzJ9Ni5i96C+j5ZXBLMxQqmyto6eol3DNp4kZBfyrs14/LSipXaAhYFUeZuWMJlpwMu3aqrq6nmpoGdtNBk8ZPplGFI9mVOZfNsfFHuGmOlGfmEM1uAsdEoYFqadFXX1JV9V4qYaXRr6CAGwpp7EcSCze4UD5guBbpRzWqramjvVW1zOMkbjyMpImlE9lFeKE2cS8oNVWVs3B5EQ78QmSPm5lnmdkZhgWA0AxXlbto9edfoorS5JmziAYPUPbca8bwM9z54ibSzRZtnP8eVpzozQFOpccaXguUJtfN5NRUDgM5k0Q7q1voswVLKSMziwYPGUb9CgtlxASdN9ERRnJZd7I85Lhy0ip3V9CWzWVU1L+Q5hw6kbIsATU3Wnmm4ES6dFCQZ5DR6GQATvFMQ4eDqTLogfTUZMfC8GlADYs2Dqadw1HckWr34OFF5pcG6jzexOtW4kZazIR48UXCAdCrESAAE+zeDUnGu2p4Sd3h19ZtrCThcOtSSUn65JNP6MQTTxQzksLlXHD88cfTZ599JmaJi4ngxNZvkMmNmWdy1W5iJe0//rinjPkbQNmZCS7VENza8pX06cKPRFFOmjCZ8rml7vF0yLB+J7pGIp6UAMUcXlt7MivKNCroV0QjRo2kktISWvLVIlq8eZG47SSEqUMyXZBm8FeulngHIn4vIp7pZ/Kn0q/6C4YfXsKfSv+Omi301gdvsDJk5TFxKhUXlbI5nd+FwlTp19Dpb/UkU3ZuIY0aPYYGsLJZW7aGPlvzCfvoYVc6FMTGMFqAxgzKc9C0REFSRTTJvbUXw2mp2EnLnnqaXrjjbtq3bj0Nysuhyk3rqfKLL8hTvt0o6BCNqp+luK7JDHWv6qZhZrKLV7SkDEiD4hcaawpJtKKsnN77aAENHzmODpgxnXuYBVxu22UaCD1flDOkAFcoqaYWLhFsHjSklGYfehj3UFPo2VcXUkWt4SXCY5K0wAzIvY/McYuKtLfsmeaZZJfVXQzE/95wIMsQjlEcbN1HSl2VpouYoZWOBubDAJ/o6RtAr9xu6KSurk7mIno/uIQHgMqLDhY8C2n1xq9o7PhxlJ+TT63c01b5hwUuAd5nxdGJQa12ViCeTsrj98ZPmECbd5bRki1f8ptK4HphZLzO/3DLAdxp8oKjJPcBomZ1a4bVLzQENlWsoM+XzmfBO4JKigZQO4bN0EM3px1GP8KbmL9NIk9rO2VlZNPEiZOourGa5q9CYwqOLOmHlQ384hsjrOmDlDcPhu38YjF9+tCjNO/5l2n9Zwspm+NenJNL7XW1VLWljLYuXUrzXnyZPvz3I7T27XeJqus4lXqFsH+dNkMWT5kSqOPRJT4RwO5dxVVlu2JTBS1bVUYzZx/Gjb0Camps4/LKcTS9pP3wEv8gW1tYeXraOmni5HHc6BtL/3t/Hu2tV44QRpesMlnAn2ih46GhzVZ7J2D120n/XaUZB0jhNQET7n0Jegj72GOPpQcffFDMWDULamxuoXfffZdOOEH1QHsnjFpuGYrXUE+TaNX25bR+yzoaxwovOTmVW+NY7IPFTfI4MPiZEpJKWHZwwyKJFci4seNo47YNtHrHcn6mVipKaGahw2YhmEOQhtxH8A7ipO9Rwc3PAH2/o3YTfbH8c+4tjqbcnDyVDiNN2k3wcA1l0c698pY2GjV8FFXV7qEvNsznpxDwSD8TO5EXTJD3w0xTJOQHtshIT6Xy+fPp/fsfoPKly2nioKF0+GFz6KyLLqQD5hzKir6eyneU0+ABJXTwUXPpqGOOoVnjJ1Drzl30zsOP0VevvMoVuIU9AydVj89LUs81v5BIFQcMBPrxMFpSXnohbExJp7KKelq6fBPNmnmELMzSDVv9TiC+QvUrgY87bsy3dtLwoUU0dPhIeuPdT6gJSeJHlmDV+0H8jZQAc9q8dg4TYGcfK7lKMw7AqjMz9DxwABneKwFx8K1vnEGDBw+mi3/0E/rvS6/QI4//hy6+5BL67nfPodEjh8soFlqumnoLMJymC7juMeEXhHTBfkdDOa3esJp7iJMouZPzB3mGDDLySA3IGjddALfsk9R8DDOpIaCk9mSaOG4Srdmwlirqy73PxD2cmgEv+BIOaZgFDWDrFkEhLmzEghws5mILFQ/T+/XtdfTl0i+4hziRMtMzJf3SWBJPDFjj7AUeGOkyzFASndzrnjh+Mu3cvYvW7VzLwgWfpSBcdqP9Mq7mYJwUxl6gynna6LOnn6WNS5bSrOnTaOahs6mwpFgaR+2dbTR44liaddQcKhxYQitXr6aPWUFWbt1COcX9adqM6XT03LnUXLGbPv7Xw0SVlexhKscf/ESafOkXBWmUMw1Jk2FnF9dQZIfklGRq5ko3/4ulNHXadPkWvA0rYDH/qqISFszhtLPiHDd6MPOlhP1dbSgE9WuFjpf5/UjICrOd1W1MFIAPTpUze+64iBH+uRbJAqaeBuKamgpxp/Dr639Jl152KT388MO0eNFiuu222+ikE74uz3TvE6nV83Q9DSgM1WhJorLNZbS3ag/Hj5WazG+yqaODPNRGK1Yvp4GlgykjLVPSDAUjf7gKgRfiI34CgJ+ZaiLeT0lKp9LSQbRq/Qp+agxzdiNjEJ4aXk6mHRU7aMu2rZIe4Qvb6vbcstVLKTsvTz4dkQFInW5JDKDjHCzueKb8BSSctiQaNnQ4bdiynhqpznChFUx3gMNB4W1upXcfe5yyk1PoyKO/Rln98snjaeGeFD/nQou5vlZPK7ENDRs3lg479hhuQE2k1PQ0UaqNba3k4YbRwUcfRRO4J/7av1lxMj+lUEhDBGkyQbMtjkjhxs3CxSsoJ78/FfXPlRXeegGnlwy3kaDN00HjmQdbt1dQeSUWgrpqIRhc7sQBgWRkN8rOiIG4ocKVl5fThx9+TJ/NX0jzFiyUa052Dk2ZMoVGs/DYU7mH7T+neQuZ+PrRp5/R3j17KTUZlVb51VNA8BAbKUalr2+oZSWB7weNiHUmURoLmd015dTQVEMlxQOo3TIq0PXOTIGhQuBf9q9/YRG1eJqoomand5ShO6GFXkNTPbUbi31UowBXtu+ooYo95TSAGw3YeEMtFulQjQo2SzmVH19vKlT6FVhpcvqzs3IoOS2Zyso3cXjYg8bgv+Mwx80gJLC1hT74z+M0tH+hLJBpammiNjSaWGF2sCKE4lSupY9IzdwjxTeNJcOGUB6/086NDinLTE211VQyeCAdNG0qvfmf/xA1NrD2MvLUSBb8sqhQNcxpPI8W2o9OiUwyVTd4aPuuGho5ZjzHV40MBKJIIN/fJqdyY2ckrV1XRvi+3UVguEozDpAhMROw5Lm3A/UMVa2srIzeevstVpwfMn1EH330Eb3++uu0fPlyWrp0qcxnfvDhB/TB+x/Is/fee4+qq6u1/OhxoCOhpVlnMgtIJog0FiUi3IAt2zZSYf8CUSTsyvgLBiViQwG+gVIolQoKCmnz1o1iH/pN54B0aqEJBdGehLLIMdAZzNi6fRNl52ZSelq6UiT83Kse+Ud6pXIV5wx5ooxBodyg+Bdzg6Rs6ybu1bdIuFBOzkLHSeUvSK8s3fjxh5TCDYaJB0yh5pZmCRm5jz9JqyhPvIEnEIH8lPnj4QS3Ie1GVIWNTC1tHho8bjSNGzGcPnv2ebZUn31508tuNHd0rJwC+KYV8pbt+zjfiiknB5+csC1H0KskTddIgTLT3tZBw4eNpL17a6iuvlXS7WhCEgiu0owDrDtcpKb2jZYbYn3sscfQrTfdSL/51XUyNAu6+srL6dRTT5VvM39xzVX0m+uvk+e/uu5a+uPvf0cTxo3xVuzeBy3GlNBsZTFe39AgSk3tFAXp4CO1j6wmM6z3dlBhtLW3U25uHvdwmjm8JrbpRkg0TXGVVoSKgY5HFTdykH71Darqbal3rGSG9T4QVHh6Q4E67tGjtxlfqLhJr766iravXU8zZ86k1nqsfvWPufTccFW3Xmg7s72YRRmx4qyvpzGTJ1Pj3ira/eUXHJh/ne7yngPw+aNSUFPbQMX4DpMfePWjU4GxXxkZSZSekU6VVXu9di66wlWacQAEpxmRDpf0JDBMJQt82AyVopUhdtbAjkCAtjdTbwT0heK8ki4pLG0amuoIU36ZaTlsBSWZLIpS/8Gt916eazL8C0IKojZZAKXLx9vV9bWUBGHeQ0XAnH78oufX1NxCuTkFojDVs2CKU1NoKJeqb5TKZT4tJdU7CiE+eHnkJBCiTl0yrV+8hAq4wZKdX+BdVSrzyg6gs62Npo2bSKu/XMx3wUWnilPsED+Yl6hjNWjs5OdSZwf2snYqBMMX/DALM3NyqKZe1XMX9nCVZjxgqaR9SWl6h+aMezPshI+4Nai3oYOVV2tnA6uJOmrpqOO7Oqpr3M0Zgk8r9AJ8qEer4mR7USjquY9CAUyA0jQG/lJSZN9aL8TP7gPi0drRSM1Uy+mvlfTXNu0mT4faWkylDx9IqHRC8Wjlo9IbafoB+ICN3bGnaxo3HKLbOjJcgOPgtuI40b7ynTRi6HBq44ZBMvjtSMFU6fe0tdOAgQOpo5XT1IAdAbryRJUARYATocOPFv7xcFnKyEjlstqhTjRxwnMB5ztkFGd3ZnYW1TU1i6218e9CAbXChcOwDs/2xGKQaAARoJQm5oeUnRnWTRvgxkq9C+20YcNqWrRkAS1b8gUtXrSAVq1axvnBSlMaMhYyel74VXbRQKkeXMHHNha0yrb7AVWykdO/bPmXtGzZl7Rk6ee0fMUijlMjYTN+SanRWPDyQAjQ10ih0g5gWiJe+4r6A4u/OL4NjdRZ30CFeXkcBaX+o02FGZIi9r8zKZmS83IpMyODarduY9vg0y6x5rk3/uwRFyUBRi10CXUaYCHyrA177TF6X33uHfBKc3MvwtqjCP7MMGh0sbCH1Z9EgjVtfamnCQTKmnDyrMdz1cRqbCU2fvQEOnzGETT7oCPo0IPn0gHTZqg4opnucGQRtCb8YDPytJQ0PztFLPbEIr5ob2+jCWMm0Ozph9DM6YfRzAMPp4MOmMW9lQx+1spRQR/Tp+RxdSJa8AUyHpTC6Rd40y53EmJs0DHV4wXsZ209paCMcg/f4az1gQNK53ztiPLwhUiBdCF9+LQLULzVaXcCKu9VbnGZ4UaeXrbY1+RWd8HtacYB1h5ZX+lphoK5Emn9CStNgrhJq9DQ1V++xcOVL6kpWWzK5TzIZlGTTdkZ+fJ9enwjyoKto12W8hfkcniGrcg6YZYym3kXiKKDESL3IpMpXdKdnJzD1yzKzejHQjGZhaNHhvmUolSk3oueL2Yf2jkP6psbKT+/AI9i8DUYfH1kICklldOJOx0L5yA+SkD8wwWre3rQHBqHhY920lmE4CQlrDmQpk30hcMGSB3LLL401NVTfk622DoZQiLBVZpxgLVC4Xievg7MgaGH0tthFpcQcv7Nl07KzSpgYZBETU0NLHcsA13GjX4/GsAL+NrSysKNlVJmmmWPXnME4w49K+VLWAor0Iz0TDkmSsld5yME3/BdJIb5srPQaFFQoTgbFuDNQy6jbZ42VEDDIh6hdVIT99JTc3zpijtYcSKN6Zy+vfv2UWqqs8epeXOGLx4ut3m5uXIfB+YlBFylGQd07Wn2/u80A0HXzW3bt9GOHTvE7Gh9dRyInI6gUmEKyi6Fe1sDSwZTfV0NpaQa87esWtUH704kLIlS0lNpX/U+Fj75lEpoaKA8GH6boxQ32KVfI4kGlw7l9Ndzz0xSzr1CjqFBaGjExgXu3XJvr76+jtJTM6iAe7YIQ74rNEwKuJp4EhXUi+ILvC/MoxZWLNU1NfyIe/sO9cbgi/TGOaCO+gY5QDt/QBHbxre3aQyYeFFa1I/2VOxQjT2H0qagUlhT20StbS00aNBAYacleBcGXKXpIHQxtrYC+8LmBoGAuZRP5y+gTRs30VtvvaXOp3OyvsYRHfIdonHDcdbGYYNHUG0tC1acGi07xChhrv+ih5rLw76mDSxchw8ZwXdKMYm/iAy8j4RiAIaHVfo58SKBQe00sHgQK81GamEBKdvusq0WkkLglZXYPhTYmQqKC0h11T4aMXg430LEqBAUbxX5zBrW+3AhoXrfLBk9mjZz4y4tMzPseIeC+ME/GancGNpVKSMuSUXFbKcWzHQLOCNHDuYwPU1yfq98xmSkPTYoJiVxwx7bLuYXZFFmFvYMNtLtogtcpekgdCFrt+wI5GyrsPuAwlFdW0+33HwL3X///XThhRfSZZddJs96b5K4T2BkBLb/wykQCirCbZ3tVJRdzAIwnXbu2o6up+SbpnAB36wkiiCVaHvFdsrKyKKhhcPI04k5KGxRZygNUZxswkXeCU6xIDOTBSDHQ8VOXTDXmpOSRwOKB9DO3TukV6zDMYcZKmxzujXJO8zPqtoqamluofFDJ1Bbh0q/UpL+itNJaH8nHnwQ7eWeZjs+OZFYhYY1HXYk4DKzacsWGjt1qrqP+6YN/ijIT6NRw4fSmtXrZH9oM7xxjAIYCYPI2rlzB02dMp5a8UkNe+hUoyPRsF8oTb+C7zDs/FUbhvvQF5WmjvLll19OF198MZUOKKYTjj+W+vfvT/fe/zdvwemNScPeq+0soEeNHEsFeYUiUJVIxWyjWvYyZcJU2rO7khs4OCVCLYNBboYjJHSScdUEYLjT09ZIVXsrafzoieyX/gLS5yZiMRShc4VkVsqdNHjQMCodOIQ5gUacigV4Ay+njJ9KzQ1NVF29R/YNBhR3fDENBO1C+ei7l5NfuPdeXr6Vxo0az/ozlZ/xU6MVE1VSwgTKoUyLFPWngUOH0oolyykjJ08eBAtX4s4O0BG3I3nI8UcDZOeGjeRJT6PBR87llnGQXqbBEC9fYgJ8UbUNDZEpk8dQfU017auqp9Q05CWGjdXQsewUJG8g4l1JSj4bffHit7kRmZVBtH7tWho2eAANLEjjOtGNPeg+iIRWmlpZ6UKC23hQKKTGYQNku3jETIa/ELgoGH/7+4M0fvx4OvP0U+Xkd+D2W2+m+fPn0afzFniHaa3+RAOrH7EQgBWiWRl5HEfMKRqWDFEaLFsH5Y+maeMPoDIWhEksSWSrN3aG7/GCze1pnyCgNIkg4veSWWlu3byRJo2YQEPzx3AMUjl8dWKMxA0+wgOY5T4EaYMN5P2glERZabmUmZrLXpjLXwp1tidRQVoRHTp1Nm1dt5HaWhoJH8Z40yJ/waHdennAdilpSbRl8wYa3L+UJg+ewXacC/iukOOC58F8FTdCMEdDeFeJs6mnnEI1rGDKVqyirNQMiSfAzrrGwIg7CG9rUnZKIaFRUb+nihYsWUKzTz1JuQgyPIp0xp4e9sgbEWWBRkEeF+dj5s6iLxbMo8amVkrB+WDcLJK44hVpoGhSw+Iwa4UpXuIR23cmtXOepdK6dZupo7WevjZ7Ah4YezIriNFERlSipkCwcxstSVztYHEXLYGH+wU4rQF56TSsC4FQiQxD+ISLce1OoM5lpKXQ518upnfeeZv+7ze/kuqHxR06VbfccivdfvvtVFPXIAUI70hd1bCmRVN3Q7Sfmk82Rw9qrJNb02MHTaZhA4bRulWrWFB0UHo6lAuGEJWosYuz2R8A98mp3LPt9NBXK1fSwMJBNGXEAWwLH1TCMa8nZSBSHlgDiwII1z9Y3KcSR5cG5o+ggycfRFtYcXa2eyhdhvzaOS9VTtsFr1Kk4PWXX0tJT2Lhu5aVbwbNnnw4v8v+SOlQMVA8UHfy633ZOUBJSUHk3uBR551LazaX0ca16ygzJ5dSuRUkyoKfKwXjS52KkRn8jOswGgMZWdnUXN9Ib3/4Ph15xqmUOmgIe4FvNMNLQMzJNEfOaPANLs6kgw6cTPPnzaPmFg+lcrnFCTVmqNoqCWbSZg1lzs5Oo23byqmiYjsdf+xMjKxLjoGAmOOeoND8ceEgrJ+cJHmHvyIg/HQzUJWysjJpR8VuuuEPN9ADf/+72Js3OMIe5yOGDZH5zauvvtqw5Xf5ZSE2d0mLQd0PJaKtwM4uSUlqMnP62ENo1JAxtGrFctq7ZwfJoAAzX8QqEoNbdWEoe7FBnrJUTUrrpNrGatqwcS2NGjqaZk2Yy0/xQb/hzlAcPlKMUn+KX8EoLuD0YSEJ9lIdPWQqHTBpBiuXtbSrYgvHFkepcdhQMkZ8lRJVsdFxkjKN9KcTNbY20Jq1q6gwr5COOug4Fr5ZLKa12NZiGH5ZeREnYIKuXz6ddOEFtKm8nBZ9+AmlcMFNT02TbEMuqsV6Pg5jG0Xcij1TOhcEnK25dd16+mzRIjr6rG9Q0YEz2KXaglG2net2KHGNWM+YPJRmH3wgffH5l7S9fA/HNUWNknDsVL6phhpM3piiXDOhkYfyv3QJ5/nOHXTSiUdQpvLa615t0+fjjwsfDFa5cBKqQvqQYnxyYtTH8Ene6l5gyPWmm26ic84+h0pLikXwmfdmgBl2GLIdOHAg/eW+v8o7SgX0HShhniIt9GljZ9KsGYdSVeUeWr9uDdVW72HlmUSZmRnyfSq+s8UKaAgbUAq+NE/poOr6vbR+w1rauWMnzTxgNh0wegbzBnzQDBPxY5AWR0pwKXPPQBoEHKekJG4htHfS8NIJdNRhx1CSp502b1hP1VW7Wbm0U2ZGuhwflsppx7Z7qULYai1JPtep48bC+g1raPu27TKHe+iUw8Rf9DHBBVUiNA90ms28iQPAW9Q3zMsVFdLxP7qYSkaOoDffeps2rFhJSS3Nsvo1KzOTMjlt+PYReQwFmcb26dxoTGMvKjZvpg/efJO2VO6mEy6+kAonT2deoYfJZYbT4G089RA8zNypY/rRsUcfTjsrdtDipWuppsHD8cdJJcmcrhRuJKRyOeZ0MWEUJYOfYeClvKKKFi78gtOfSmecNIvyuY1nrr2iMCWFZlsXGkllZWVch7lFghYIS8TGJpx/57sXRxazvvrMcmEmmwqRtjSg3ZphZwcEstcI9RzACROoDAOK+xs2BvhdXRTgS2ifggN+gWfZWRlev37zf7+nm/78RzaBZx30xFPP0LnnfMcbrjn8UNBuPB2d8uF2VoY+yy8+uPX2O6mpqYlu+N1vDRsVXx0Pa9y/9/3z6aKLLqZjvnakYRMeGpqZZ6yUwuFBtMA8bBv3psw80/EHdNjSMGDCKs+yyg20eWsZtbZ5KIUFT1ZOpihKNeTeIaMInpZWampoptzMXBo7agz1y+1POWl58Ir9QQMJPmvl4BzwqUEWVm04gQCFcHfNVlq9fjWXtzZK5vSnZjChF8N/6Mdg9W1ri4ca65tZ6GbR4AGDafiQkZSb0o+VpYd9QLoVQR4E4kJzSwsL89Q4f47FeYZ9VLGCuqqK1sz7jCq2bWUFkk55mVlUkJNLWaw4IRE8nN84yq1y3z5q50ZSZn4+TTn4YMoYM479YSbJ4hhODctBtaxK8QNpxLtt7R2yYjqeaGnB6Tlqfrq2CauUmYdcHjyczBVfbaUtW8u5MZDNMq+IcnNzuLGeLBshoA60suyo2ldDlXur2E0GTZk0hoYPzaE2Fvdp1Eql/fUqc86bxkbZuF0hPjUUx9JBRmdm+sKNB1qauR5zOUNDzykktNJEnAsLC5XA41c6uGDjXf2+tIfNUjQKoFeJsLDFFQRqDhfin197Hd11x238FDzroMefeIrOO/ccasD3Vebw+V1rr9QOcI8wgAwu8NgfUkU8NB8iAYTJp59+ShMnTqR+/fp552YhqF9//X80ePBgmjZtKldAjgsHD/ebyjbR3j176bDDDmFByC1xsDREmvAcy9qzuWIiDPT2/MpOWAjet8ViBg92h2GovVZ1/4dhfZHd4hnHRHpQSckd3Iuqo6UrllBLWzPl5+dymlslN9Fqx+caedn9qF9efznxvr6+XnosqfwMI5kqLUwY8rNNVyD7IOA4Iw5ZWYpn4ZSb8IG4sH9JnTI3m5qexGG10OoNq2lXVQXl9ctjwethV9yPZF4NKBnIDYYCKioYQOkpxi48Rnz8h2PBia7phB9YCZrB5Qd1VJczJyGhcma0snLOysmSo8pw6gzV1FDVrt1UvqmM2lg51O2ooHq2GzJmJGXk5VJeSTEVcc80c8AA6uR61sJxS+7ELDhSz71MzCviL0kNQLO3opBQhjNYEaNu6nImqZcyEDuwyKm5uUnqXFpGJm0rr6SVazZwmtI5NG6qpWbItb6+QfIqmRU/ykhdbT0VFZXI0X64z2E5hSmY9na+555zGrvL4DI/Z/Z0Sklq4/i3yW5WWeyuQ6aZkF4l+60lLtoSiLQoeYZVyRwXL8+c4ZWOGcJp4YYQeOYrZ7GHkdBKE63YEq4E1lNHzAjHLzvo1yAr0DOD0gTSUpLo6p9fS/fcdQffgWcd9NQzz9E53zmLWhGPKEoaeA8lA8GfxYpGfbQebZENDPiJlimAzc7BG9ghTTfdchtNnjxZhmWbW9u8zzJl8Qy3TmGXjBIQmp94D5VY8yyqtHAwwcJC/KBkUCGhaEKFoSotyglMLABZGK1Yu5yKivvT4KKhbIO5PrgBf9SXh2iEQdE0c/7j8F7Z+UmC0fHClck2aONZSGg3nVLOkBakO3hqAiNQiEgzqnhra4t8Z5yTnUuby1mxdLTS2GHobeHDFWzmrcqHcIt52glBJJ7qGOmhSwDXriFipXJjQwOlpanhw1B5o8taJFChqrzJNPZShRJNwRO9iTyjasUKqt5VSaOPO8awgbMWqEM2KV9wxJjiOTMISpD/dXnBAjkomVZWNijPqDd4qsBvBWw4RQaEg/NslQJIYaXIMjmEt/UsypcsWUZzD8XCtODoRIeC+YP56waRZ9zTRDKE913ToNgAnkSeNqQF8qzN4JnIMy/PYoTEWcUN8gg8w8ktGHWMSs7YYL8YntUqEzwL591wYPamsREKQO0xCi5dc+0v6e47bjfuOujZ5/9L3/7WN+Rw52iAsNCalZ4s9zRFtDtUxsxAOM3NrVIxzdvlIqnbduyU0/gLCwtYMPinP1Ig6s1NPp5JUiJMT6jwEf3WNhzN5ZHhqGDe+3sFl6rni/MLUV5SU1TDwB5JzLNGtUuMRMrsm/+9f6X1DzUQdDrxahOXsyzmWSy8DwWcf4nv9DIzsqmNeyJonafL/rkYmlUKEulUdV1HpGu6lI19RGGLregwV4o6CgQSaDHVV/az0dSgVfAPp72+kXuU3Lvuh43l8UyLbxWuL3Q2ifKwgK0gazxQABgFMKwBuLZ5I2pgeB78wrArtztCAiytrqmjfv3y/ONhz2oD3DhjRYPGuTf2du6RLzEkzuMx6qYx3RAg+yMH+yNFxogbeKaUpmrQSjgxxBsIg/UuwoU3LywFQDc4YkGM+RwTIAgGDxrEla+AC7oaknISPZk2HTauZkIPKi01gwU75lysT/1JfR+o761wShqEQLBgIooC1CHS0yGNhfQ0CDXlAcoxeolKYQKw9/dc9Rmsfz6XXteOScnAsA9B5RN6kmgapWRmUmpunik+ukFghl2++tDVvT0QRCCKCOEFJ/U0Ly/Xb/W7AO8HIsRFCDd9EKGi7UCyXKUZF/jXAqd6t90JHWNcUUgeffRR+vjjT9S3fL0wOYgjKGIBxPBPDu5YDCan0OayTVRbU+21U54bZi9hzjSL8xjDljoWmnxuAJQDp4aIzEAH0BSMHw+w4CJYkNZn6MlgpAHx37FjJ23fvp3N8NyaNp0+fzsoXJD603f+rgAMM0cCjLIEAnrAkc6LIh6I/b4t22nNZwv5RsVOhtz56h9zgF3jBTOBd+wcPRl9mot+AwQnXWCTF4HEA/LGnD9YzY2GS7D81ICbeu5FL12ylFBllaVx1TDf4wUMLScnURryH2O/VvdWmJ53iVOwZ30cKVddddUNMtxikAeLTEz3gNWsrz6zXLiQGAZAWxrQbs2wswMC2WuEeg6gEmFOMwdzgIYdEM674cDsDRacYH4GVqA333qHFsyfZ9x10nfP/R5NnDA+ZBkMBIQlgoFLH5aRx6sMIpw2zn/pUZgmTGD69LP5lMut1vFjxzpSCTCfAZ5FC8TVF0OiltY22rBxkwzHI3p4lgIBwPyCWZM16vjg3eyPFxzA7l27RInk6KOS2O5Tbji8/tprtGH9evryiy9o+bLltGTxYpo/7zMq7FdIX37+BX300Ye0csUKWvTllyK0VixfxtclNHLkSFlgYXhmXIMD6dTAghspZyY75AUGMt5//0NWRNn0zjvv0qRJE+ndd9+XfWcLCvLE/VdfreZ30+nxx/9DBx10kNcPXHfsqKCXX36F3nrzLZlrbmpqpsLCfjIfBD/feOMNWr16NSvTNHrvvfdpw4b1tGfPHho+fAQ99dSTtGDBAlq5ciV98cXntILTvWzZMrkvKCig559/npYvX05Lly7l51/I80XMr81lZTRV7+EaBLq+okx+9NFHMtT68ccf07hx4zjN74s9FvvB3YYNG0SBvfTSS1RSUkK5nG+qnKXRJ598Qhs3bpRh9A/YnzfffYcGDBxI29eup3SWE4X9C+kZjuvUKVPp9VdfpS8+/5yWLFpEg9hNbl4+ffDue5z3n9IH731AE8ZPoPXrNtDAQQMlGxsbm+iPf/ozHXDAgcyLhZzeFZzeZTRo0GCOr5ob9JY7g+8A5j9Rzz5mf9PTM6RROn78OE7nJ1IPi4qQLqJNmzaL21deeZWKi4tlYZodqqtrafHiJTRs2FB5r6W5lWqqa6gU8QTYbu3qNfSXe+6mfXuraPLUKbS3spJaOL+zMO/LL63+6iu65557pN6MHD1KvWcHBMD/TY0tUubGjx9rPFBlEo/3VdXQ/PkLaPTokcYTH5AeyLRYZEAgcNDGj0+eOXk8o6s0o4TZG600AVj/j4XPwgXzjbtO+t5553FFG9dFYIcLhNVdShNpQSEDnxCOhMX2U1iYjBo1SpZvO4FYlSZ0OubfM6BE+P6N//2PHnvscTrt1FPkvsXTTo//5wn6kgX08uUraR5X3qbmFhoxYjjzUryQ9ArhBnacWPQE5aNupvz8fOkRgR8YrsWGAFBcWPWJ+D/33HN89TBfRnOjaAINGjxYVhxi5WJdbR09/fTTdNppp8lil8LC/iKE9ByeEWpIIH4adkoT5jVr1tEdd9xBa9euoy+//II2bSyTsOvq61iQz2CBnEoXX3wJC9Nh9N///peF2BjaxQ0CLJDLz88TRbp161Zaz0pn8+YyUX7gw6BBg+Q4uP8xb9HrrKurk/c2bdrESvgr+vrXvy7zeVBEtbW1rHhfZkU6nP0fTUOHDhXFhcVLUJ4ffvghlZeX09FHHy31srS0VNwIv80JskA/Q5jYhQrKF7R27VpWIq/Qvn37OI0HSO/4yiuvlNWY7777rihS5BGeIx5Q/O+8847E8xWO50JWblWsOJBvY5ge+Nc/6UnmWU5Ojijlww8/nJ7he8Qxg/MPyn9XxS6qYv9eeOEFUc5NDY00fORwuuXmW4U3a9etk7ju3LlTFPeRc49kZawacXbAt6+rV62l++67jxYtWkyrmKdfrVpFL774Iu3evZumTJ5K2TlZdP31v5K0fPDBB1Imm7nc13J4RUX9qaJit+TNvn3VwqOHHnqIDjxwhuRtv8J8evmV17ih84F8l7mYw0CDYMvWLXTKKafQ4KFDqILj+qtf/YpaW1pp6rSptKN8B63hBtJEbngN47yUAmYmo9wiTcib5557nm688UZuHOTQu++8x/zL5bxVSnr9+g30xBNP0Mknn8T1Ai8YXjD6stJ0zicXXliH4GSpex+CmoXyAeUPFSSYcOtuICafffYZ/eCHF9PW7Tvo2Wefo/PPP98v5kgHGnJd8oNLfQMLvD17qmjv3n2ykAsu2qEY4TEqGFNaZgalZqihqiQjD1evWUXlO8tp5aqVNIqVA4Tz5i2badu2bdxLa2JBsV6E02fc8zzppJPpnbff4db/YlqwcIH0kiAonMYbr78higPDd1MmT6HmlmY6mcP+knu61dX7WFG+JMpk/br1Iow/4B4alAh6gMCIESPoySefpK8d9TU68sijWAmvpWeeeYYGDChh5bRGeIWeEPiEMgABDsXQ0tJCZdxjhALD/YABA+TzG/BgzZo1olgg6D/nXhuU1YEHHiiKDvyAGyDcMgXFDaWPntbYsWOFj1DAUN4YQp4/f76EXV2tlAfuX3vtNYkb4giF2dDQQJWVe1iJDqABRdwTzeaeaHsbbdy0gbaxH2gkIJ/6szJC2YHSmDVrFpVwb7Ns82ZRaN/nMoZGwn/+8zht2baV6usaZHMBAMK5qamRy1uHfOqwZOliaVSwBT9F4wDp9RHw4YcfSK952LAhNGToYCmrxxxzNPeKN3AjYzvHfbM0VOAfGjTY9/n1N16TvAXee+89evDBf0h+YYeuhQsX8v2D3OveKM+heA895DCaNXMmzZlzuPSohw8bTjMPmU31nCd7ueFw5x130tAhQ8T9NO79jxg5gg6bM4fauZG2Z9duquGGQl1NDe3aWUGe1hZxh5Wpa1avlcbZXXfeRZMmTeJ4vSENIw3wae/evfwOGpK+NCv418m+BLenGSXM3tj1ND/nyqfuOun8C35AY8eMjrqYIKzu6mli7gh8w9Am7kFoWT308CMslOpoLPeWnAg/1p4m4jBuzCgaM3YcnXjiidIj/PX1v/Q+w/dnMw48gA6acaBcZ8+aSSO5l4lnSM987mmgFfz5F19IxT+Fe6ipaSm0p3Iv/fX+++lT7m289NKLLNTepy8WfUEf8BXDXltZUKL31dDY4P3UBK10HOo8inkDZXD0McfQOu51jB8/QYYqf/KTn7AAXUJHfe1rzE+UCUBfg8PrnGHX0wQg3KE0h7Dgg1J5lXsTGJq89tprRXHde++99H//93902OGH0Vcrv6Krr7maDjnkUJo2bQortC8l/ccddxwrhjIZeh3DZRVKdjMrigncC4PS27evhstFKuebR+ynTJkijQAM20JRQWGBICgRJnpe06ZNkyFZ9GqWLFmiRiq4bCG/wJc5LJhDQfMLPT4MKyONRUVFokQRzvXXXy89SfS0L7nkEjrzzDOlJ3rOOefQCSecQNOnTxfFifC//e1vS4+skRsB/QuLJL4prPhzU9NpOyumSdOnUj0r1hUrV9IeFvbQdYM5PIwoZGRlijL5+JOPhccDBg4QhXDgjAOohRXJ22+/zb3sYfLJzlLOa4SL53PnHiG9HCwWQ1LMBEBRz5x5sDRQYMaZtRgW/8MfbpDGzB//+Af67nfP4bifJUPeSMPJJ5/MvJghfkyfPk16/GgwIZ+OOupIuummG5lfg6mmukGGbOccMYvjPpz9L6WXXnyJTmL+j2VFjREQDK+/yOX8vPPOo3T249FHH5HG1IknncTlu5Eef/xxblA9RW+9+SY3RjZKmc4ryKe9XE+uvuYa+v3vfk+HHjabe5Kdwpvf/OZXKmEMDFv/85//pE8+/YS2bt3G5Wos90SNz8y47ej2NF14Ye3ZOKWouwdo+nSNL+az8PF+bwNa8jNmzBBB9vd//ssm5v5Agcf+uUceeQTd+Oc/0tVXXSWrRCHMAcw5HnbYYXQkC5+Z3DqffeghdAQLvjlHzKGi4iJ+t406kzppYOlAGjR4EA1nRaznPEUwGo0NlAEIUAh2jDTgg/54Aa3799//QBT3Y489JumBgsEwIwQTlCbm9B742wO0eMli+sc//kH333+fzGXOnj2TfnTJj2Ru9iQWlFA06EGCBxdccAELu83Sg8Sw4KSJk1hhFUuvGpg9e7Y0fgD0lpAH6HFoO0AP9aMxhvlSfJ+He83vcIEeMoZ4MdyKoVLE8dBDD5V5TSinW2+9VYaY77rrLunJoiGAdEM5wx3ShSFc9Hjz8vKkMbBnT6W67t0jm4a8+vprlMmNryGsoPuzYoaiLGHlePXPr5FPSvILCuj444+n2dxLwzvX/+p6OSoPPUE0mKC80VBAg2PRoi/Z7XHciEg35IG/TNDYtatCFCXS98ILz3NPeDeXzbmSd1u3bqGbb75Z/MfWlmiAQIHfeecdopg1MFyM9EPB6u+ssW4KUyngv8bzzz7H9aWVTjj5JBRQSmJF8otf/pKuu+46ymVF+N4770qD67e/VbuBZXO5vuzKK2SE4BCuB7/hhheGdIFM5g0U4oyD1DegV119Ff34xz8Rs0ZtTS0dd+xx9O9/PyTp+8XPf8H5pjZpsY5m9SUkmwW8VdibEfyZYYgQgfwMFlasiKffWixCUCnEL6zuBFJzPgvQuXPnirmnAf2TwvTof56g3/3ud/SXv/yFHn74YVl0U75zlyjG2+64iy686BK6/MqrmK6mK666ms47/wf0ymuvy2pCjwcbbxOt4V5INrd+IVuQbTAfwUILw1PnfPdcOvOMb9IRhx9Jx3ztODmbs7XVI70MKAZsnoAeCYZo0frGFnMQUlqJ5ubmyfxmbk4OKwluUTtd9gzvEP5o7sVh2BK7Np140omySGf0qNFUkF/Agr0fC7RL6Ne/uZ7mHjGXfv3r61kw/prdlsr7B8+cIQIWPYza2jruSW7hhshBMk+FHix61iDsJLNo0SJRougNASjrmMOEYEcDYQsOaeZ4gA+oa5jDRY8UShK9XyguXCNtSKJ3iYVUUHJQzuhdoeeKsKHQQegtXcO9n2OPPZbT+GuZq0P8AfSAkWdoZKGRUVGxi3uaDVQ8bDAddfKJ2OpJ4ouh2en8DhY6gR8YEgYOOeQQGRJFerAgCb1AzNVCQeI9pBvvgE8VFRXeRUih5A3yDvxCzx17OaMXOWbMGMlH+A/eofGC9KBR80tWcr///e+loQjAHkoXq9vxDhoFCtj9J4Nmzpomd3/76wP0xJNPsMK9S+61tMKwK3rfv2V/Hn3kEXb3N46TsfWoIccwNIxGCtAJbcxpwgHvKFeV3OM899zz6IgjjqDjjjta3JhR31DPeZ7CSv/P0ojRc/rxlMPxRsqVV17pNzyL7iykkr4HzM+tdhowso1xxzA9A8xuzYjUHgj2TAOVGRXVOjwLhPN+KJi9sA7PvsqCedGXX8g9gOHZMTEMayIspKe7Vs+Cb+bVs1BCu3ZXisDJZsHpRPgQKNEOzUBhvv/hx/TySy9LaxcrZjGcfOopJ7PSy5GEYCgIPSH0MjD3haHAr33ta9ID216+g+67715ZEYweGOb9tnLvCas5sUk5ho7AC8xRYhecTjZ7WFikJqeI0nj3vfdEWKuKnyQKAsOFJ2MYculSehvzZ6xUMHeExRCY39uyZTN945vfVAkQ+PgbDOZyFmh4FrsWDR8xjJXBDpo3bx6dddZZNHnyBBkuRJl56qlnZI5v4cLPad5n80Qxwly2abOsjv3oo49Z+FXKcCUENVaZYiet2tpqGWZdufIrFurTpKcInqAHBYWF4cJVq1aJoIYwhKJAjxL+ILyzzz6bHnjgAVEoKL8YfoQiQo8JygCCNhR0XUW8oDQxd4pe2BlnnCG9Oiw8guLCnCzyEnOc2AoSihFD5HCLMoDeJ+KG9Hzve+dRcf9iWsK97kNY+YxhBTh0xEjaxHmExUR/++tfZUEQCGlGmEgT5tBRfjAMivQjXVDgUKZoMEDBovGA+MAf9ADhHnwBrHJHlDT3VJEGhIH531NPPVXegR149Oyzz4o9+IwrwkQa0YNGeDjv9sILL5TGCIbJwVv0qlE0sWvQ+vVb6OfX/Jwam+qlzOdwL9sIXLbMu+H3N8hKb4ym/JJ7zrn8HMOy+OzkYy4X/3rwn7Rt+zaJ32effkbV3NOfMm2qFN91a9fTVVddJeXtoosuVP6aUMXKGHPimKNFfDKzsAGIetaXFwIlbdq0qROeIkNBTc2tyF0xw14cGfeazHYaMLKNcccwPQPMbs2I1B4I9kwDAh4V2bojEBDO+6Fg9sK6I9CPfvIz+uc/HpB74J33PqDjjvlaTDsCQTG3caXvjh2BwDes7NNAmrCNHlr53/rGGVGnQwOvm3cEAiJJD+KJ7w+xvR9ea2OzNU81zyCYsGG79h6usJE7VnWiF4gTaFDOMWwoK2XZAdzgfSzkKB5QzC34YVz5OigjNYWWf7WCW+ZVIrDauIwhXMznbN2yVYQdFp1AGKDVjxW0+OQAS/qhlI/7+vESHwWEEho6WXity45A8IrN4AXyC5+ZoAeIXhiGBQH0jKE8UB8Q14z0DJmDgwJBbwG9ZghkCHrUXygJ+IlPDurqayideTdl8jTp6WEF5OP/eUzm6dBogB9QUBiWVN92cllhXsIei3GOPPJIWckKwY6eHuKAK3pj4AOGgDV8fPGHOV/hBkO0WNCDYVL4BV4jPDRMkIcIH/kIM55B2UE5I414Bv4cMP1AWrtmHW3eUkaj+vWjJlakB534dVrIDd1DZs6SIUr0LKHQMEeNcKGQ8D4ae0grwoQZDa2qqipRcqg3UKCY84UiARAPKFSkQ6cF/pnTC3/Re0XDBautNS/hHnPGSC/s8A7ShCv8RH0EDxAXuEV84AfKHlBb20Dz5y2kA2dMp9LSEg4YkgNxYGIzFBeipBe5sYX4jbqZlZtDHVx/EJ7eHhNpSeE6gLlQLJSrq2vgMtFBBf3ypGxgsY8Z+BwFfMMnLwhHJxlmjPQgvo7vCMRACtWPzY5AyjomuEozSpi9sCrNi3/0Y/r3Px9kExx10nsffCSngLBsiwoIq6eV5osvv8KFfxAdNntWjytNAHHl+mwLPANh60Hsawml6eUZnokrH2AP97pGwYj7DZs2UH5BHhUXDWTes0DhAPGJixUYpsURWqFgFpRdY2EPiRcDr3r3ntWvGumB0sbKXxEMDLWhAT9kQllP8X7dHhnQA29srFeNBg8LapyZZUALai0j7IA4BKprEMZaAQH+vPEB7+OZJj0XCrMIdH6OuKDM2kErGfMcqowkGNGu2rqN9nLvcNysmXKPnnmk88/wH4oNPUPNDx1fDcTTmhYNmCHYtRlxNsveYNA8APRV5Y1Salu2bKPp0yeJnWoQmvILcWA7hKneRfw6vErTC65DEl/DPeQ8jreDMgVgbQa80voZZihUzW8Adq2talvQvqg0TUlx4RR8BcDBktCDQCq+ccbpojCxiKY3QOqvUTF05fQjscavir83T/gKs5nEGmZl9GLs6LE0oGiAEkxcVVK45kM5daCV3tnOZnU6A4Q/BAAEix9B2GhCAH6w3ocD3zvwDnfiLScTw+n4Nk8dTmD0IIxusxoKs8THhgD0JrDqEejXr5AV5hCVfvYLwk8Pq0HIgrqk2URAIHv0aIMpXA3tXoeHsEGwV4IeaVcnWJjDAMFORhT4uc8efvFLik3Uf/gwUZhoELXjIR553dqTOSwA+a+mNHzhADp+GmZ7M+n4a3/NfDH7h7QgLEDbm8Mw26E8FBTkisJEOtEQwJ8f5F3EgcODGf/G1QsjbLFmP9Vz5RceGY/9IHbsDFdOkr9/Xtha9gm4SjMO0IVcw1yw+yIQ+8XLltPGsi2+Lbl6Cax1XN84wfHqmmpqalFCFzsHwVffn28fVvzZAtaabAFPQ5GGNpuvigw5FpL84mNHXqgwGhsbqLa2ht/1e9hjQDzsSPKHr4Hg7x4WTCjHfK3bu4eqtm1jhRB+wdZhmcO0swNUmP52gLa3o0CwypVgQOOmtaWNduzYw4GxBfwN7LXx3CBbwF5TeAjpZR+FqzQdhC4b5sKdhE2vjSGovoz/vfE/+dat18MqV6KosDr7sOgCKwtVJWHlZFx7I+yEr6Zogc8fsBmA8octQBEI7t4Cq7LBnR4wqdi8lVYv6gPlOgrghBfs7gOEVLh43PeytkfgKs04AMMsGtjvMxGUJlYgYin8fgFDz2DnGGwLBlkCpaEoNkXUl5CXly+HkQOJlmKtH7Dbz5iJE4y7xAK2e8RmEC6chas0HYSuiJjz8sE3J9FXgYU/xx59FM04YFqvmdMMC5D0UbIeWYbj0ApYcWCOS/xSY7T7Dfr3LyKc+u8tv7gkQIMByQGhXPcbOoRKWWl2YsK2lyOyxlonZWVn0ISJ+DQq0nddBIOrNOMBLWQM9K3y6h93AAtp5y34nNZvLOt1c5pWaF4jFdwnFHM07Ic/e6v2ySn2WESBVYVQHsEaQIkmmDCfWVO7T9KFdUKBU953oPIQBlWuq7eV0841awlHwUUL8Kc7G8bhhtXU1ErbtlWoOhGP6MXkZ5z4FcpbB4Ldv5QmCo9TFDYifiEsSEVwmHDRv1bg+zi9wXdvANIvPDBB3+Nin4owYVQsbMuGb/Bi8itO6A4FjW/+zBtwm9F3GwiIt56fJtpTvpO2rlWbm0uSmKJJWe/jRxI1NjTQqlVfee+jPlgarwWiKBE3fgWLV4xx1hClaW65BDJbYX0WqvETbusoHETrl+aZExQM5uihcMSrgFjj5AQFwumnn04HH3ywcdezADvt4hsoDZGWFp1d+IAfH7hzHzOsfHSyjIcDHSenSPupgQ2+h+nju/henpjSaH0/XNLv9gQQrHx+YQQ/bMwYmjLzIHXDKZQ/eR6aNMz5LryycRsrmWG9t0cn5ebl0DTs3gPIK+G8ZwW/g/C6kI1VmKR8NQwG7NxFS8Fg5z5Scodn4wB8s6fh/bapDyCQyMc85tTJE2nk8KHkke8Aewes8bWNfxSshwzEBgEF+XmUk5Uly/c1+kpexgoI/+zsXMrLUwuBhI9MgcpI3wJS0SnfpmaUFFLukFIsRFCPokRvKxeID3aFGjx4IGE3q5ig2OVPMcIBL3oMrtKMA8xKE61a8z6u0aKnChlijnnMl199nZYsWy5HbvUWxEtMQf5hRyTsUVvf2Mjp9+2Ytb8Aaa2s3EVVVZVG2o0HCQAt99Ggrdu0jXYsWYmKKs8SBVjBjw0kVq/GuaYov8YDFzHDVZoxQo3McKtV7hSwU4wPKK0hSqx2EoDUhX85EHM4TgPhyJVrGAoGSNvt3r2L6urqxYwFFGYyjU6FBfjpz7HoAB+0MAgkFKzDQMFgdYn5zIZ6lWar/92tQBFedw//YnNzfKcKILVCDqXbmpZ48DMcP2s5fTu328/bRgKdnu4uF4GAeGB3J2y07oVkYAiyws4NKEaIF91bnB2D7D0LButdNRqbWmR3DJgDkYZ5uyfAb89Gs9mA+V0NOzsgkL1GqOfYexZ7Dg4swRmIhqWBUO9GAlQWHJuDY5MAKJHTzvgGvfbKS3KfnZsvpyMcOH2q7Z6t4UQFTlo97dKDzcpMj3nv10BAY7ulpZVwMgDOI8R5gzhDE/t6YlEMNvWWOT5juy/EBwcMHzBtCnmM4S1dBuAXNlLHpuqtnAEoKygucAX/Pa0e2XsWJQj5gw4s3pTn/B56AalsgXuMCKO3i3RrfuE9aZqwHfbkxWbq2h9EBfmAe5xpmZWZ4VfP24znsEPR0PJb/EYYhrm+gXuZ7C82xRZYBCN4ADO2N4MbJ8uVhjksvfesvncayCOUZeQr9lFtbm7kvIY5T/jiCzH4KuJQQDjYOB3fL6OOwq94pAd+oreFtOh7L9goZbWukVpbmikdcoJLA7gdyZdFSAuUE/zWG8jHA5pnCANb9oXDL8SltraeCgsLCF/BqaIU6D2j7LK/Us5wWDTCCBgMN+KMVyIF4uFpbed6qzZsjxPLRAY1NjWL/EI9DoNlYSHxlCasmTn6VAecV2ceLgVC+R0J0GPCyf04zQJzXzhB/ZRTTqW3/ve6PM/JK5CVpzMPOpAa2R1zUOw1win8umJCgEFxyfFtcQD4gkNq0bv4xS9+QZf86BJvfLVwAy/hDscd4dgibHhw+aU/pfrGZnEHQYhji7DSFvEu7F8oG0Cf852zaMu2ctq+fTthpx2cxFFQkC+7lnz4wYdymgPc4zgvHPkEf3BYMs4ZRI8Hqzhxej2OstpZsZM++vAjmjV7FhX2K5RzCHGmID7Ehz/FxUWs8PfSxRdfTG+9/RYNKh1EK79aKfHD+ZLf/tY3aO36jSIcJsg3eioPdM7oK75CwDeaED7gg12pAS/gD/IlngDvoQCgNGEOp9xECqRFKwAoGs5ttuP0c3Hr7MSG4mgkqHBjiYOZZyhXKFPxSA/8RHqsPEMSJD/5mgHJivh0tFE7X61lIBQ0z1B2UWaxNyzsnIbmGdICpRmOcsaessnJir9oHiJWrOqQjQEBeYZyhmPRZB9jm3xRNlCa0aUTaYF8RhpQBiR+QeIUMYxoIRykBfmC/NH1PFYknNLU9mgxI36DSwf49SaAUH5HiibjxA74CjrhpFPo7TffkGf5LNQ//fQzmjZlksQD0HEJJxraTyzAwUkn2dzTxOtOljENhIMeLU7Cv/POO+nO229VDwLg2ef/K0OYP/nRxd5eIErEn268WQ7kBf9RwVHZcXDue++9J+dR4mgoHL00cuQIaWDccMMNImygiOcvmC9n/OFIoZdeeknOLSwZUEKvvvIqXX311aJQcVYh3J977rmywnXCuDG0eu16Ob8QZ//154YSjoS6+upr6I477hClikOKv/vd79ITTzwh19dff13OQkRZOPP0UyU9mqc6W8o2b6A8nHJSONCwgQv91AekT7VmnT8bUAMCH+HoXlO8AGEGQji7K3ewuZmGDB7B4eM7RtWzdgJIC4SZ+fSReAC9s2A827OhjKoqd9P4ww6R+qlTF0kqURYh+L0jEnECeIYwrHI3EJqbWmnNmvV04Iwphg0jkOAwJbipoYF7mqZTTsJ4J1JYjwaLF3BqE8qYPgHICYTH/T4Kp5WjHczlSZv9W82+OMDa/EjfByWvW5jUnZjwzGkSf1WLHIITgCCxIwDHIWke430AQ6JnfuNM+slPfyJb76FinPf986impkYONz7vvO/Jyf84CxCnz+OsRwgDLTzRK8R5hFB0+E4QZz/u3LFTRgwwPwO3ubk5dMAB02nFihWshL+kfTV1tGHjBumVojXZ3NxCpezP6JHDpSfc1ubhHu42uv/+++VsRyhufE6BcxZxoLCGSj+nz0ggjsVqbVU9aOzypHmj8sIHfW++RkJm2D0HaZjNgJ0bwGwfLun3NLBhexMrHYgJZLO1OlnfD5fsYOcuWtKwsxPg1rBqaKinutpaMZvdh0MaVnM8SMNqDkSAh+seRmkAsQtKcCQO5dYLPzdmsrEKk7S3ZljdxEI6bwHNC4HJTSyU0Eqzp+C/jV73KG/HEUWUuTzJnCKUHA5lxqn5OK2/cnelDMVedtllVFGxS1r/6M3iCKrJE8eL8sQhxxMnTpS9MnEqP5QteghQolVVe+W0enwnCiGAw43r6xukdX/uOWdTIfcG27gXvnTpUhlh2Ldvn7TGa+sbacfOHZSZmUVHH3MMjRs3jnu2J8nwcHp6BmVlq2E7O8B6LLsfwL1c1UyIXx6a44CyEoi6Czo+w4YOoxEjR8BG7hMGBiuRqhGTJ9KMIw5XGZ5AQHJQfw6ccaDcd2f5SXS4SjMOwGnm+yUMuXMMK6jp06eLwjznnHPopJNO4t5hHq1du4aGDRsmQ6VDhw6lBu7JbN9RIY0MKEX0HDHcu2vXLunp1tRUSw8Vc6wnnniinLIydvRImdcEoGjffPtdamhqlh4r5jOHDR9Gxx13nMxhcpuZxoweQxs2bKBpU6fR5MmT6fHHn6CSkhJR3K2sYBEXQKJukZsZaZmUmpQm/kDmYI6ouxVYNAjUEAgXOn2YpklLxWED8A+UQIJXJyUlhZIz+v6BClZIGWDKzDDNtSPNQvxjJRdhI+XKK6+8QQsCkKdNLfQIRhpmM+B3b3kGWN0DdnZAIHuNUO+hF4Ihv9ycbFlNaUYovyMFekVpaaneMvnQI4/Qls1l8iyTBfxFF19EA4qLrTI5LCCq8LOdE4GJ8zQsyFGPHAfCwuQ/hkCx4vekE08IGBbitHTZcuHzzIMPEh7jLFsAK1M3biqTRQszDpohK2FRibdt2yYT85MmTRKlmJKMuYY0wrmU6EWOHTtWeoNYWIEeJ3Yhmjt3rixKOOuss2R+MzU9nSaOH0tDhw2XhT8jR47keCfT1KlTZXERFGlBQQEdduhhEhcoYfiDec8hgwdRBscJ86Br1qyRxUUYvh09aqS3jCBdwnOm1WtWcbOyk3KyCtRioE48xTN11ZC0QPiykom2bOn3wKdAfiAO1nlT83uxAn4hP6WcYcX0ts3yrWZR/xK2g/8qLLiLJTy8jzqjeeY0zPxD3iAtZjtEHYQ1QFtWrqItq9dQ6ehRfs0Cn+vA0H6CX+BHPOe0I+UZolZX30BLly7jhqTlpBO7rLPyjOtZcLD7cJhkAwSFzUOwnzPkptOQaBlxw6JJ8CvFwe/LvQuBQPBcFgLh3iQAzMLAnGHWzPNbCARY7rUfZtjZAYHsNUK9h2E6VBb9yYnVeSj/wwXKH1aHmhcCHXX0sfTxh+/jMfUrKqZ5n82jSRPGRfWpCKIJLrdy5suQZWaGDBY6ICO7AGG1trbJ0Omtt91K9959l3f+0grE6eFHHxcF9+NLLvLyGIS4QXECHkk0FEGy32bvLZ527skFn5zXYevXzPyTRY981W6M4LxXAHHSYep3dbx2VOxmBd7EynkoJXOF0mUXv0L8s2btKioq7kclRYOk0YLMVmn0bzzqzycg0GAfjULBe+Al/NKrhQ888EARYPB7/fr10phBmYZiQ68ZjRLdOESYotgtcYsEOg5SzrKzqXzHFmpqrOfGzDj2O5nD0HOb0fmvgfeRFvNCICeUvoaOH/zUC4HMdp3c+EFwWB29jRtP+3ZX0gFHzuUywuVUXLEfxjUYtJ/II/Aei3ScTIcZmmfmhUDBwsKj6n013PBbR3PmzOZ7tXoWZRjP/NKHdAixmR82NjDPco2FQHBsGwxWzxrGCIGgWlvxCZ1vIVCQpEQMiZYRtybWZ2jMyEKgQEmJECYx5sIpoAJpQBjrypXwMCUTSkopUqRfFTPcaxJBw3YguLUjqa+mezP0uxp4DNL2MEOhNDS3+FUU7RdWVY8eOUIqE3ZssmYRWsITJ0xkhTmQ34cwVfmoKR5AfJ955hl68MEHZfXyv/71LxmShqCE0sTwM66rVq1ivnTK/csvv0wvvviiLMpyGkMGD6WR3Atvl54U8gIKR1FfBfIOpRGqGksPho8fRwfMPZzTZC5NvQvm8qZ5HyoPUKb7F/WjmTNnciMIeeZ7R7wzk0bfzdZuhas04wD/As2l0lww9yOgctqRsIQNMEaLUO9KMAhH/gyzibRyBfDcDOQehA56XZ42j+EH/+HFLq6dA3p4GIpGTwJlCD1J3K9du1YWN+3evVvmZ/G8rKyMPvjgA1mFjCFomHWvzSlgYwgssNJCO97p7zYgCSz50JZr4d6bpx6rwHunKDQrTCCUstRQShJ5iG9IzX7oPDSTi0jgKs04wFqwldh24QWzxyoM4gOt6PyBQh+04Ev8iHt1G6hq7z626J78w5QChuCgEPFZzsqVK2WTCCjGvLw8WUSFeV2Y8XkNvnfFYiu4Ra8TcJKv8B/fvSYnqWFn+CxXB8PoCWBYEYRUlK/dQMs+XaAeJBDQc66pqaPFixaz0hQL9cBFzHCVZhxgVpoiYPq2jHEewo+eqcQo8G+98x6VbWFlYNx3kSdGfuGUjwy9+rAb8hBKE8OsWAx15plnynepWDW8cOFC2UkJWxiiPOEb1ieffFLKGYZ0ASyKchoYFs7KxLZ9avUwfvq4vvRCZ3lObi71Ly4y7hIJSTLyoFeHu3AOrtJ0EFqeWJUmVocmOiBMA8lTedbloan/bTyPhIzXvGQFciDQUBY+Y8HOQr/6zf/J1n5YHIQckqtBwKhRI1kZFYrZL2zxXKwdBVYMY6ckKCvsjnTjjTfKLkqlpaXy6Q56nVCocANlit4mtizEoqFZs2aJH072Aku5Fztk6BBOKgaydQ/TOf97Cjr7sLZr4PixNHrWwXzTe+c0owHyKjc3m6YfMFUlzcFysb/DXT0bI1D59OpZcAP3h8+ZSwvmfYrHVDJwEM2bN0++L7QuZgkHiCb87Y2rZx957D8yz3bRRRfJN5Xsgygq88IZyFi5cnzVAim1KAFzLdjkPtp0mPMPYeJbT4SpgedYbIRn2N9SL85C6xuErfQ+/fhDKhowkH557S/lM5j//e8N6Vmp72w7pbEjqWE/4B+ueBfb+Q0ZMkj8A5xaPYv3kMcot1bgGcq0TgvqHuY5oTTxLj7NAWCOFnjXvHq2uRknvLRTOve2sY0e9134XvEiFuD9nls9ixSoKxpJLVVVzNdmyh88mOsnyq1COCnUfsZz9ayZ13r1NFaDhgoH73k8HdRQ30T5BTmcYKysRvr8ZbYX3nDc1bOh4CrNGIFMMCtNiNvDDz+CFs7/DI8TWmk+/ezz9Oabb9LA0oGyab0GKjT4i6smwKw0MayoPvXwL0PhAf6hzCoT/FDZ6Z+nCFefbqCVJpQrNnnHBu+fL5gndslp6XTwQQfRmWd+g6684graU7lH+aeiLd7CL/T+rrrqKlGaBx2kdloBnFCagPU9q19aacIOpBUOoNMXS7nGu2aluXHjevK0NcsqYrZiKDkQ6/mw8KNHlaYRFMTXxgVf0l5u+M0+/eSEUpp4Xl1dS0sWL6NjjztKVgrLZvuBXvOG4yrNUHCVZoxAJpiVJo6dwof1X36uFheUlBpKE0v3o8gxRBP+9tbvNMHHH5x/nrKMAIi+MzkQOfDt6PDhw6lix3Y659zz6O577pZ5w00bNtLVV10hvA1UPK6++ud0wQXn04EHHmDYdFWagRCLQMW75p4mwtFh4Wr2O1gcQgEKAARFg+0L2zs8VFxcongiORa93xqIX08pTQEHJenhQly7pZyVRAOVTh6fUEoTKUB5KS/fSWPGjFRWeCXQe95wXKUZCv5az4VD8GUNGhbWxkWiABUaihxAwwSNgnAIbpuaVc+Ub+VcTDt3sRCUPTZQaOZGAIB73QC47/776PDDD5PFQE898TiVlhTThvUbvILIJKcCIEppESdEI6gh5IO9h+f9+xdRSXGppLZ3pThGcGJkgIOTnz9iiChMObQ1gaCOEczwKUwgoTKx5+AqTacBgW0SRhg63B8WAkULcCpedbkTvls8h0L9zre/TS889yyNHD5URga82E+Eij62za/3ZQGeY8EUTgFRYiKxmCPZzklq3rGbqtaXkZw0kEBA3mKoffu2csPGQOgWoYsQiLikmFun1paqCKkgsGvZBmrtBmsF92Yg3ubDTlF4gwmn/Rlxz2EEYAkEiz+GDh4kQ7RQoN6c6SNZhPIVa3nCcWjY1P7999VWj2Zg+A+bKgA4k7S6uoZNKMNQskrRgvpq/QTMxWLfzl1UtmqNcZc4QB41NDTSmrVrDRuGJLzv5ltvgdsFchiiNE0F0wkhl4joLqEr+WGYAZihLMUcTRT4HWvcoWQwbxIqn7XCiYbQ80M4erhf9xTtKBROPvlkmes79thjZRUxVuAC77zzjnz/iYO6//vf/9L//vc/Oaz72WefFXrqqafolVdekTlvhN9ngTppNGyLhw2h0VMniznRgNXpOD8W6Kbqtl8g4oVA2q3VDMDINsYdw/RMw+xew84OCGQPhHrHbyEQFxixNhWcYH5HAnhpXgiEOTQcvrxsySJ5Xjp4KLfsF9KwIVjSLlYRAdGEv731kxPE6eIf/sB2sVUgIO447QSVGsUFrzmdHizwbOG06LkdMzo4rlB8ehUoep933vMXicc1V10pdoFw1VXX0Pe//306+OAZMu+HuoH9X9Frw049gN18IcqbKPAYEgpea+VsLb/m+2BlG+HjFJhPP/2UXn31VcOWaM6cObJlH74HhUIF9CIdvYECnj/33HNyLiqOewOiSQ/i13OrZzkcVpgip2DGsCyMnMYOyDlxJVYhof3snQuBTHwwKrG7ejZAUiJEQitNVMoBxf1tBX8wvyMBMrvJpDSbWjyiNJcvXSzPhwwfQQvmL6Chg0sdVZrxADjS4mGluSc2pRmKtZpnojQZDmWFHxA/pAVHA+mKqaErqA4Xbu+8m5Um3wdSmngHzy+//Eo6//zzadasg71Kk+uQNDSwshWAvYbZHAsgJCGcIZj1vRnhlGe4QXywWcLFF19Mb7zxhsT/8ssvl/NPcTj3H/7wB8O1Pe666y45Tg0HhccCq9KMB8Aj29WzyBKwj4Ou3lpO9bU1NJR7m06tnnVKtlgRidJEHFpYFm3l9I0bN1J9chJMZXjjbFWa6uIoOCiPR8kzv7rpVFgm9vspTcCBMBJYaTZzpczwKk3YmvkVzO9I0djoU5qNLa10yOxDaOXypfJs+MjRNH/+fDlVo7crTa1o9sSgNMNlK3gWf6VpUzFtALfhKs1LL72cLrjgApo9e6ZXQGrl2VewceNGOb8UQ7O//e1vZScifBb1wgsvyOkqumeJtGnSacUuRVCwp512mriJFj2uNAHOsk2Ll9Lu7eV06OmnJJzSrK1toEVfLqGjjzlClVFEqzNA3LxxtijNOAEbL7S1eULWzVjRRWk6gL5T0/sKuCybCzQKb7wqUV9FFG2HXgVrbmJUQyuaeAFlCkLTCWBPW2xK8cADD4jCBLCzEwSrRqxlFvG1Um8B9AZiAxo6djRNnnWQ2CcaMAc+ecoUMUedm5pRVtqP4SpNh6EEhL/wcUpp9oWyGk4cneHG/gcnFA/8OOKII2QKwYxwyykUKz5lCIbepCCDAW2E9Px8yh80SN0YSITy2dGBHaOSaeBAY+9kGQnhlCFxyGcruQgbCas0UW3NQgAmTRr6HkyIlsQPDsfsb7vlQ2kdDwyPgHQ5BeEeC1GspO0RBoBCr3dcssbBKQK8nxUY90Fh4yic90SmIm2a+NZpAiQdTLhHvKxuNAHhDxOyT0Y+6HzV4cQTkg4HhoADxdOa/kCKD/ahetWaH1YyA2mJ95A2wjRPLWngFp9OYw1QxYaNtOGLLxEhbzzDJY1AZqdhDlebAxEWuTU3t9CSJSvFvYDtFcEciNT7XnR5blCMQPz8wokTtDxzEgm9EAhj2UXFRTKvBVvZdID/4QbEfUKlXWMAhAjmNLKzs0Tw7NtXLS35tau/kucjR4+V+aKBA0tk8ltFzxf3cFrliCvCaJeVoJnU3hafoUAdTnV1Nd1+++107z2ht9HDKtif/vgSWQAFaP4HrVicZLV6NstvSNBJIB66R4TVs9aGjA+dlJWRTs889wLtKC+XbfTsgGxC0rAQ6Mc//hFNnTpFyhjCQVr0IiAgHj0tXc40z5wMA3NxmHd/8cUX6bbbbhOlqPMRVxDCw/WPf/wjzZgxQ+Y0kW7tzgq7+Jn9xLuY00QdjVcZQByQR+AZzDpOnTKvl0wpaSm0aekS2s35Pvd0Tk9rizyXWAZhr04H/INsRDmDHeYbzbxzEvATw/MoZ5Azdvy1oqqqhpYuWU5f//ox1OrhvJJXQsSN/W1mnuXm5khaEIz1DRUyVs9GkU74xwoTZRlpEHmGRhg8dYptKoISji5nyCf5ft6BMOLb1OshSIFi5mBzbmEU/sVKcQzPxQ3/wwp5Hz0pgQLvAOtm1sgsQD/HVeIlZFiGgLeSGmlxulLqdGh/IxFivvShCaL4KsRxDURmoa/DdhI6LSAVHxWOPdSDiooKKQ6hAP9aTJvT6zDiJfg1fGnRfHOWZ5WVlSLIAM07TdpOX6GItDkQ9Ltm0jCbdXriBTPPAI6JjNikMHWwsB45aQIddOQc8rDi87oKESXtpzkdOv/NdvFAuPyCM3wChSPjWlqVgjKeGFd74KmWTeCVXXLEKspkmssChpABhBOtf7aAXzocDkKH41QYCdfT1IAASElNkX1FpSAwmd8I9X64gL9YoZWdlSH+19Q1yHmHuqc5dvxE2Qy8f7/8iFe9wj8dS+xgIytBM9SxUUYxiBmaLzqc1rYO2Wbt1ltvpb/cfWeInuZj0oPD6lmsDAZL4U84cWtubqXszHTjTr2j4xIt7NLS1t5G2dyTtIuT2f3td97FvZ40uvrKy/EoINDTxOrZmTN9i0fMrdl4wtqjdRLYzODjjz+me+65RwnMAPXjz3/+M02YMIG+/e1vGzbRAYpXfz4TT+jVs4HBpQA9nZRUbxmxT3lgoKcEQhmIJ5D/4Fm4sgt6UpKWwmlS3UxGiHfZWVNjA2XlxHf1bDsLDMjoTJMMiAeamz1cr1OYnKubyeaWSzhmK4I9k1yLE4KGa0ArcDQ04BxXTe38Y76PhRAXvqiwuMUpww0m6LjiEgmJ//Im7lXvFMCvNQ7RkoRl+AnoVqYvRYGhXBi/8IfJ62cQQqNcepv8nqQFpJ/FQN73ESGGpIMtcM/WAd0DmPsIH8ZLBiQceGZA3ztBGjBbe7NWt9ESYBbE4Qtle/8CkRm4lzJgceMkmf23QttsX72WVnyijojD9I28Z1xDkYYOB7C6cYq03+YyYHVjJvSuamvradGiJZyfyi3/+Ap/QPKlRRDwHfUoUtJA/MzhWN3FQubq6TeiZ3ITC8W3abyfwlwYMK4e7x6ICxcuwgdqp66hySy8vZ2wBIK34aNlUQKmsafgSnOH4ddKY6gDksNrubtw4SL+QA3VNHj8WJo651BUXDxKKODQ9OkHTFc3rghyDK7SdBgYPjEPoaCwukrThYuuQAOzu+uG6EYmmenAtdVDHmwakWB1FMnBmkSMcok4Srw2QY/BVZoOwzy/AWClnqs0Ew1ufvZdQFNyDoI4G7esXkcr539hPEscYM6wpraWFi5YwIoTSUaZdcutE3CVZpyRnJyivqsy7l0kAtzcdArW6Yx4Aw1Y6YEZ+iM3L5/6FRWpm14IxNfc6Nb8CsU3vJKenkYF/fKNe7YItO+si4jgKk3H4b/CzW3cuXDRFd2tLP3AdVL0EEeheMJoGjVrBpbTq2cJAsggbLhywAFTDRsXTsFVmg4DwyJ+n5xwxXSHZ1246GVAlWRq21NNjeW71J56CQTIHHwHiROLBD3YRkk0uErTYdgpSNi5ZdZFbwZ6JuHsv4ut4vxGUvogUBd1Ciq3bqc1i9UxfokEyJyGhkZauVLtPRvRZ8gugsJlpcPAsJNZb3bXxsQuXMQC7DRUXl5OmzdvpkWLFtHixYv9aNGixfJsw4YNsl9srOjROoE6agwP9yspptIRw8WcaEADZ9CgwWI29kVx4QBcpekw1FyNTyDITjOuznTRyzF16lQaMWIE/f3vf6dnn31W6LnnnqXnn3+WnnnmGb5/hh544G+Uk5NDBx3k3PmT3a08pX7qrmZbB2UNLaXB0ydRp2UXr0RATk42TZgwjnwDA6qh4CI2iNI0T8p3mhjrZx/AbIX5fTsEe7e7EY+4wE+rIMAGBy4SBSgzvacMOwEMt0JhYr/hW265xXu9+eYb6cab/iT3im6TvWlHjRol+yA7ge6WB6ib+g/zmI2799DeTZspKYyh6b4EpNPT2kbl23fJJycunIPLzjjALAhQePGBcS9qK7iIGGZFiWZ7YmWmeZtHLB7BEVTAxo3raf36NWzChuRtQh0d7aJkY90askcbz2jTGrRz61Zat8J05mQCoam5hdauXWfcMb8Tcb/AHoCrNB0GhIF59SyESzePQLlwFBA0mgCzOTFgVmBm88CBA4QU9Nx8AhRmJMGQfKUjh9HYqZPVTYIBJ6KMHjNazKFGAF2ED1dpOgyr0sSG7a7STBxII8jby9KCKPEEEspxbm5/KsgfiDtON8qx2kdZU18HxgxySkqohBULztZMJODTt/T0VBo5cojcW8/5dRE9XKXpMDB01d5hUpqJ0DJPZBjZgyOEMjLszvaDA1QTVVWwIhFbIyokbusdSnHP3gras2c73/krSycUphN+RAt0plmnSI5WbS+n8lWrKTnB5jSB5qYWWrNmk3Hnwim4SjNWWOQmWuhmRYmDsF30Yhj5N3ToMHrqqafpmp9fS5deejldccVVfL2Mr5fTVVdfSVdeeQVdzdevvvqK8gvU1mSJCLMy27tnL+2urGSTOvsQykZdLYU+BnS38lRpUATs2bWLtmxMTMXS0NBAW7ZsFjPOlXUckXgZh+BtESocB+KRtHHjxk4UXDX3lkSNzS1qtSebcW9H8qLFrK5y8VMaXksTtHsN671GIHuNYM+xoAHfkw0sKfJ+yGxX10OFEQ6ampopOztTWiCbt26n2bNnU+WunfLs0MOPoM8++8Q27FDQUYO/rW3tsmIxOzNDLUVxsBCaw2nxtMkuIrfedivde/ddXt5ZAbcPPfqYDGtd/MMLsXrf608oIOo4hT4nK9OvDDuRJv+0KJ5lZWUoS4Y1DO2+rb2DdpbvoNbWVkrhupDKPY+GxnoZ1kLvsp2fp6QkU7/CflSQn6/OSZVV0UmycCY9PcNvcwCnFIsun/AP4WRnZ8s9EA/lhXqjeJZFNTV7+UE7p7eQOjo4rdi71OAXEGndMbtH/oOvsi+zg+kww8wzHx+ZUFZh5iQ11uwjD8elsHQQtfNDHcNwUmbmGUaYMIfodFrMPENawDPItVDh4L2WFq7LlVU0aPAAvu8w0hQiZexvY2MjZefmeu+lknZ5LboNW3RyPJ4OLmceb910km0ShBFOE/e2wa+0NFU3nQgHtT5hoTMIFyH+iQeFC7t3g1Ew2LmPlhyFjf9dSJypSqfMCrZuI6RQsHOPSyorxGHDh9LYsaNp9OiRbB5GkyZNogkTJtKoUaNp7Jhxci3s10/N7yH+UgPte14QWk5QMNi5j5bM0OkpKCgUhQnIQhKLOyfgtJIJBSQB03uSFA46l/MTChOrgp2CHX+jpViQkZFKQ4YOkPlNqWyA+BmEvM81zHYmwn8UFAh2bqMliWIA2LmPlBJaaXISTb/dAwgBv71nuzNwF1HBKrYhx1E5tmwpo3379rCZb/zycf/I1MrKXbRzZ7mYnU5xdytLM9BhBmE91451G2jDl4vYnFjTKFCUDQ3NtHzZau5pcWL3jyLbLUhwpdn9gDAw782ZlZnVN8tr3GVazwnNcFFf30AtLa3GHeLb++PsJDAcWFdfx6bEkrjIRV1Dm+vqqabS2NQ8weDxtHKjb5+62b+KblyR4Eqz+0sKOiVmGYMz7eS2j8gdzTE9P4cCYkdAelq69MrMCCuZvZwhkoeMkSNHUVFREacRInb/kzoDBw6kIUOGcMr75ucYgYY3dU7iOmrieJox51BlYaD3lszwgaTnZOfI9ojKQl1cxA4t/2JCrEMtgd6PzV9sZ6eSZxZ5uMLbGKPsB5l/MMzt3Ms0r1TT4SAmcBMNKWCOQ6XHzo0TBOgt/9avX09PPfMcPf3s8/TEU8/QS6++Ri+8+DI9+fSzbPccvfr6G/Tee+/JwplIIeGZeBZPqPlHBZ3OUKSBfVbT0rC4Q5cgtUWimZCzehFdPOELL74wh5ORkcWCNw+2XvtYyAzca77Fk+zyRs9pwjaJ8zg5D2lUcRK3xjUUaZjvzfbxgDmcUJSWnkL9++eTmq5V6RLgEoj4B+96YX2uKUYgCL9w4gTNCyfhyOpZQN0bZjNXTW40zO9p2NkBgeyBYM+wog29pX79+nn3ydRKWL+HxQ2Iq7pGB3iJsLBCLzMjjVatXktz5syhmn1qyOeEk06hV199Vdwg/GgaAogv3gdwGoVOj9OQcNo8XMk66MUXX6QdO3ZwTzldVlK++eabNGDAAJo2bZo3fKwgPf6442nqtKnU3NQsdmCkX/4HQEtLi3clqHzXGjlbggLKUin0JFnV6DfPHAQSc84j8Hnjxg2Um5vNZajAO+SuV82qMqQaZlg9nZGRKc91Hgcrm9EAfupyhrTEIxz4BZ7BX9SbrVvL+L6Jhg0bzmEiDqpBpdKt6j/cRgrIGqyeBY/jCcQN5QzhwIw8VHEGz5IpLTWFKlavpuqqKpp+5BFU36rKsCoDYgwKzQPwDGlCXUHdgJ3TgJ8YLkddhFwzTwHZAenFnOamjWV08MEHUXNLI6c4dHnRPMvJyeU8b5N7gyNdwL7xb+RpRR3ytLI8ZDPyRoUTjU/BgXBQzpAvyB/M8zoRRsIrzYEDiqmt3VdYoCAltwC20j2raAH/mo1l7Sns34ZNm+ngmQdT7b4qeX7yqafT66++LEFKMddhWxCkbErLuLW1TSokPm2BW3HvMMAKfBCdlpZK6ZbvSx965DGaPHkyHTp7pmHjg8fE32DQThB3VEwsN49XWrg4cxgeUTBZWYZC8/4EhkSR3WB0es2ataIwS0sHqIYCP0Q6Vf1Q7qA0GxobZaga5Q3PlaBxBt5yy37G85MTADIA+YK0opeNhVBt7R4aM3qsjKBwyg2XsQHh4BtCNGbiwTMzEA545l8+lRlW5cu+on1799LUY46kNkmjfhoa8BMEpYlyppVzPGDmWTifnAB1dQ206qvVdOhhs9g9W+An1Hv8vLGpkXKsn5xYwEqDrcPllA/gOSie8kxiZYTT2NhsfHKijrNzIpyEVpr6O02W6RINO4YF8yMcwEv0svR3mlCaODqprkZNwJ9y2hn02isviTu7/AonExHFVg82zG6nnDh8p6mBcLDJc2qK+q5Jh4FLG4cPAZfCLYNow9asxvuqB6CUZjyAhkYLV0ylNMP/FkyiyO6gdBXwkmlxFztA+faVm2SumA3Mr3Qpb7B3UnDqcOBnvJUmwoICUMIsm/1Hz0wxorMTPXXERac7eiAcfAuolSaAtIB8fI0eZp7JN4ddlKYBsA/CQTI8idrZiXYVTiy0n5A1KB/x+E5TA2Eh/9FrAs+ChYNnkOeYJoJi85ZlSWqI+IFnrDS7fKfZBVCacgkPcAz+Gu7j9p0m+yNhGOH4fafJzySccOMcAF7R4MIZoMAGL9D+FC5izOewIeHwjzluWLGOYQ413MmPuysyPQxsaOAdluVEC3lzwj/zEpEnKMcdHRiK57R2QwJtFVs8geC4XFNDU5/LwGC8wjOUW4wOYAUtirDU5wjkTViIhGXdxd5Q4TgQD1dpOgwUVrPS1C1pwOky253417/+RR9++OF+VWA2btxIVVUYMdg/q8mOHTtp2zbsPcuSphPSprskX3yBemiMG9CujZtpxYLPEyVpfqivr6OFCz+XnmYCJq/H4CpNh2HtaWKYBBAb/sEVj83UF1A6qJQKnNpztZfXYN2IVwsI9l9xo7a5U3NBCQVTxcvMzqLs3BwxJxLQ28SGDXo+37Sg30WMcJWmw2j1tBrDmErY6mEUbz3tg4UX+8qe991z6IjDD3Pkiz1wRDcWgowyOY8IwkL8Ro4cQYWFhWw2pxqeaEpcoOFXXFxMpaUDZV7Y3BDsy5B08H8StAgX7ILRI2jMYbOps133PXsvIs2D/Lw8mjVrpgzPChK7yHYbXKXpMDD5rubBjAKeAAU1lUvJjordVFVd4y0wXmWn9Uc4FA3s/AmHTNC38sj6jO81mYH7xqYGbgThMwQ8DESAviYO0NhraWkS8vEmMqHdG6FmpfHHJTk5mToaGqilqoqSUnq/KDTPY4ZSoHDbzrKophqHDhglNEEaPj2N3l9S+hiw4lAvHgF8C0dQkO2pN0PXsyeeeII++2yeKTVG/HENkzTMdTdUPbbzJ2yyMNf/Ds9Nbo17QMdp08b1tK9qL9ujmvi5NJGG2ZwY2LVrB1Xs2i5TDD5e9nHBa846ztYt6zfQsgUL8aRXAnyPRFma0djYREuWLjPu+L2kPp53vQSu0nQYqlCDVEFPlPM0x48fT6WlpcZd7DDJgR5HoKgU9MunjEx9MHUvinA3ISc3x/jEBcOzvX/4MmwgK43sLCjuTwOGDFI3CQZ8aoEhdgAfn7hwBsl2LRezXTjmoAjXXRQIOw7dCDmGR2bdVa2MdfOE3gB8ynbGaafQrINneFcdJjowWDBsKI4CK8GdsjQrTr+ix/a9ryjGjAElg2lQ6XA2+cqzHw/6MjgZyNX+I4bTyBkHyrmwiQTIxkxu8E2dOkHuk3tTK7WPw+1pOgylyDX1faCuYaejr1avlQO2wykwunriqgnwXrXBBjq8aOt4oNeCxdubW0aWIWzMA9XWVVFLawNsmILlJ55rShw0NdVTQwM+ucEQIWwSI32S3/yDMtFUVUXV27lcmz4NSwQgfdh1p7x8t7KItkK56AJXacYFPgGLIZJEAPainT9/vphRIQMSP0dHG1XU06a2JcPCRPTctD0qMxoXcI+VmVCSmvAcC4404EbeNQj3KLTmgtvOXWEQ7PA+SAOyAuG2eNrlqvzplLDgnq2UPRP8NmPjhk20j4Wq+Gh51hXmUPs29Bxa+Y4dVLZ5M5s6OPlgQN9PI/IYI83Ib2DrpjJatXipukkw4DvNlStXirkTBd+FI3CVpsOwDhkn94FVeeHgiCOOoEmTJolZBE8AQnt9+fIV9Mijj9Ozzz5Lb7z5Nv33v/+VFbi7d1fSF18uotdee01224Hiwh63i5Yso/88+ZScovL3f/yT/va3B2hv1T55LsDVMMOOg6E/33QzC4RV3JLeyUpQbSjx2H+epMfZHyhrjezMDHazg9566y15F/FIZcP2HRWy5SGUrT7ZHv5qIC2DBg2inFycgME3EbXUI3Hb+6DLcP/CQpkT6+B7p1KkFbJ5cUt3AyFjTQxSWTx4EA2fME7sEwngLw4RGDFihJTlPl4kexVcpekw0HMyw7x6tq8CKuhrRx5BB06fSq0mhWQFeiN4CgW1fPlyWrJkCb377rv0wQcfUOXeKjE/8eSTokT//e9/0yuvvUHN3OvEnpp5efmy4fXIkSPpzDPPpJL+heKnKDpNRmn969/+Tm1t7bR4yWL605/+RBlp2BM3mU488UR67dVXvQfvYg/VZ55/gR588EF6+eWX6d+PPCphVu6ponfeeYeWLVsmcU3jQBB3sxyHIi0tHUJ5uf0NGw1IIKaQ2QoHIR31SkDgQnH2719CpQOHitnQozEhmKLEs2Bkhp1duMBrIOxZgR5n0eDBNHTCBM7vxJrTRBpzc7No4sQx1N7mQOa58MJVmg7D2tNUQrZvA4Xk/Q8/pqXLV3LPEJ8fKHsrWJTJt2GnnX4a/ejHP6LZs2dLL/CCCy6gmtpa2rx5M11w/gU0dOhQ6bXimLGa2hrasnULVVZWyvmcNTU1sgH2ps1b6e6/3Ef33v83oZtuuU3mVZet+IoaGhvogAMOoGpWjieffLKEDeUKQVpdXcM9S2z9hh1tUunss74lR7VBEZ9x+hlyXNCCBQuoX2E/OmLuETRv3jxxawZyDBvT795dQXV11XwHCaufgNA0MOer2dz3gTIMXlZVVdKevRWUIp+cGA8dQrRKzxEgaCbMW+/dvp0q1q1nc2LNaaLR19LSRps2bqPUNCPBLhyBqzRdBIVuA0DRbNq0ScyQd4EohZXS9m3bacvmLdLDxOn/u3fvpnzuSV5++eW0Z88eFsZVYocTKAYWF9H3zjlb3GH3knO+cxbNOGAaDRg4gE499VQ68aQT6aSTThKlN2jwIJo8ZTJd94ufy1wx9tU88/RTvSrrgQceoFtvvZVee+11qm9qlqFfHFv28ccf0/HHHy/KIIt7szt37uRrFhXkm87JROQ1DA937eI4NjWqG+/jQAoycRSn5gV67DUyv+y8QunauOw+IOQOIz/37dxFm9esUzcJBtSvss1lxl3ilM+ehqs0HYZveFbVyr5WVCHL0GNEz02GRo0ScsYZZ9AhhxwiZljp5yBAK03g6KOPpunTp9OwYcPonHPOEaWH8xlXr14tvcyCggIaPny4VOo2bhF/9Mlnshn8qaeeJlv2gbKzMmn06FE0ZvRouY6fMJ76FeRTGivl5//7En355ZeiJAEsNLrhj3+mMWPHyBDyKaecQjf8/gaq3LuPbrn1FjryyCOlJ/vPf/5TjvAaNKhUwq5vqJe4CMwZZaRjMCtpKHt74AX9ktlshp1d74dWaANLS6XxonrWzqJHe5omDBkxnCbPOMC4SyxgumPs2LHGnQunkLRhw4ZO7PhhPk8TQjPJuAfMO4LoDcgBsxnPdT3A+37QDwzYVRg7OyCQvUag5z11nubHn86jo+bOYY+5dd7ZTuf/4If06MP/Vsf2RQlE0eNpozZWyPE+T7O5uVV4Ul5eTtXV1d68RwXEHCH4ivuOzg7Z0BxKsF9+nnc1IvwAH5YsW07bt5eLwsRaqOZWDy1csNA42y5NlBbenzFjBlVUVMiim6yMNFGi8AphBMqZZez3jAOne5/X1DXQhg3r6eAZB8reuOgXbSzbInsAgw6YNoXWbyyjsrIy+vpxx1BVdS298sor8uF+//6FdNwxR4uiRtzhJwj8VcUbOzxhuBK+ImZKgcCtcqnO01TnHCbWeZoqvdjYAFxNYwJDYgtTpwfhoBzo+0BAGs081ffBoJ/DLcqZ9TxNlFX4hsVAWoR1drRz75PLurr1XoNB+xnP8zTN8Ub+g2eoQ6HCMb+nnDLfkGo5rSYIwLNwz9MMh0kW6GjF7TxNhgRhhNPlPE1lHRP2C6Wp28l2GRPK/1CAnzhrUivNDz/5lI4+ci573DeVZkuLh2pra+hnP7tUWqngoX7Gv0xqUQiUKBb7nHbaaXT+eef6lA4TnuseqMeQUOCz7rUCWFCE+VHplxtp0e+CVHj2gN/mPIVbeG3mMdwgTgCKqQ4aVjBjL10IVCh9rHDGJhTwR4Jlf/DOjh3b5ZSIwsIiDgdPEIDyVMUPP4mrNDGn2dbeQgNKBnJYaDSouEQLxBeE4/JY7nCDpb8M19fX19PEiRPlYHI01hoaGmTVJ5QQNswHUJ+hMDCSo3mir1aYeWZVmrCTBh7nJz7N3LN+E9XX1tLIg7nBxc+0j/Y++0P72RuVJtDY2Ezbt+2kCRNGywroZFkyHCJl7M49hDo4Uq644oobkDGaPG1cKPFn3ANWs4bVrG/xvh9M7gDzexp2dkAge41Az1GIUTlzsrPkXlzxD5z7k4p3tARAyGDRCW7LNm+hRx95mE2466SDDp5JZ5x+mipgUQLhID0o+OmoMIad48T+trV3sNKso6+++oruvP1WOpZ7YaBjjgZ9Ta64P4obBlj0AwE38+CDxKx8UMCdKCj2WPMYdmLPP2hopLAAgAWeARIHi9mO4IcG7gHYmd0AWGELvqWyUjR0twDmgrwc6l/YTzUOjXjLu2JS5rKyTawM0ygvr0Aqm/JX+aLM+OE6w0ITZc3cuAwGs8BTvAlMZqhyhh5ffIDwoJTAM4Sza9cuqquro+LigfwUcfaPjzWuoQgAjzCffeONN4qCxNaMWIyFcoQ581/96lfiBkoV8+j41OnTTz+VBhqeT5CVrh1+flphttfKVtvJVfIS7xPt3rSZqnbvoUHjxsBSSD0L7L+Gfo74IE91AzMamMM0kxnIf13OQgFFDEp2/fr1NGrUCLZh/3zFLig8rMzSuBGooHjSlbyX8Ih/cFU/4Jk62AJyE/C6i5W0wQBkAPiF1fWw97qLgfy4H0sryfyuGmALjFjCcRqxxkUyyQSrf+ZDqHs7pFDwDwgFGsCvlfSsLRRfsO9QLazpCs0qI0wNK0+jQTAv4D96pd6eqdUx3yMbx7OAxtFYhlXMMAvB3lQHAmHIkKEscEezScfVmTijdwkFA2G2Y8cOGbUYPHiwKAXMfePwb6yi3r59O3300UfyadAJJ5wgnzBBccZap5ANUmo5OSMnTqADDj9U7AHkkBN53dPAObB5ebk0c+ZBcq/SFEXKNEOcokCwcxstBYOd+wgpdJMlgYA0xxta2ejA+tohxpGJRd9wVsTozWxhJkCpZWZkcv6hJcx52reyMSh0L8ZbVgMAi6YyMrKlAeGEjteNhtraWunRQkmuWbOGvv/978vwNnqb6BVicdaYMWPoqKOOor1790pvF4oVbtauXSt+WHthkaJTul1M2dmUkpcnxkQCyi9kT06OkX+GfcQw2NSF9mPsF0qzO+Wd9TQIdaxUbFDx751S25H609OVUML3RUJ6IixwNm3aSPuqjW30EgRQNhgOXbp0qfTYgikffJoDQhlW7pzhA3qLn3/+OY0ePVrmG//+97/LFo1YbQ3FiREMDCtiaBXznLgCUJr5+YFWM4cP5LTUUk5T1bqNtGnB5zEnTY8cxKrMnQQaG4sXL0EyXTiIhFaaurBoNabFolMtZzO0dxirF1j812FGQzIfJzfyH3cgqPDAPRavtIkwZuwc+aMpnoD35rDsCb0v3z2ARTHt3BtiG5MbZYadhlYoWmD63PmT+RmGJrWdGchnLYCDIRw3gYAhUMwV/vCHP6R169b5xQ+KKStLrQNAr08NheK5iq92p+MZKQFFRUV07733So8Ti4GgJDE8i7B/9KMf0YEHHigKFPzH50NYDIQ5dvRMsakFYMc7KwK5ga1+gsUojQ3Gt7g20Gk2+2W9R7qsz83Qadfv2VE00O9pvloBWdTc3CRmcQLn4ZAZds9BMUK8iL4I9yj8Vs8CTS2tnCD+M1VqcwXX7gCzGTAPRcIPL2wKhbWgBCo4gew1ujzHLWcGWqeYNynBJyfG5JV5OAqviS3/hAojOLDzRqu0mLE69PU336JTTzqR7cGbDvrJzy6jB/56X9Dt50IB8UN6EH+s5sS+rfEAwoGgwpDY7bffTvf95W5vg8MM8A2i9JHH/iMfwJ9//vnyeQreD5eX6EFgyE1XeBYrRoY4A+z8A551suDIxIpj3ZgJAcReiH88bS187aTUlHSOJ/ITfoAjPr9QT5oam7isqVWNSH8gIaafBXpufmbHS+QNeKZXkFqfhwP4X1JSQhdffDE9/fTToiBhPuuss2SrQTxHOUNadJmDMtPxgoK77LLLaPLkyaLEwo2Dfh+A3/AX8kMvPLJb4KLdYEgWvVMoz0MPPVT4EE76ESbKGdIIMwjvyJX/pDnQyo0ijkNnVgZ5DO9w0T6bw0BcvO+b7BEG0oSFN7hiFS14o8uDBoai0TjIy8uTtJkBd9b063CwAhhm+As/AfAN+YN3wA88g9k839va6hE36WkZkqDkMCoYwmnhPMZZqogj3wYAVs/60hYJpG5y3PDZGjYbaQcvQkctYiAc5AnKL/gCWeAEEk9pCjq5sKgKjZasLqDWgqoRKgxb6Fc4H1BpoDTxnSH2NsXZk8xAftZBP7vsCvrrfX+hhqYW44XIAb6iAqBAa6EZD4APqIBVVXvprrvvpvv/ck9Qpfnk08/K3q3YzQeVE++Hy0st+HFFukBOA/kNUgIZws54EAQ69ijKbW1NRpogqJBiQ0zIj+EZm9u5QSSVkgOA+1Bp0c/h1ly3VFjKbMcTPDOHo91GArwLoY3hUOSdBr6XRQ/vnnvu8e7dq+u3jgs2b//1r38t2xJ+5zvfEQUaDRBvCDMIep2eQED+oczjHbiDAgk37XCv66ZOA5DUye/LH6cRDYP2NlGaakxBkYYOC3FFrxyHEMAflHksWLr22mvlOXiJDTRmzZolB7ajN40hZmzagTQiHniOna3QW8YwtPZfXyHcr7rqKpo5c6Zs/oEGAhoL8BtX2B100EF0+OGH00svvSQrjLGaGI0KxOfHP/6xnGqCBVTYXKS4eAArwFZKz+BGTwe+igheLgWctibunebk5DLvUTcNexuo2mDmVhhg50irbpChQSPyLIyohQ0jSggH39CnpasRE1dpGvB7DqNUDtXTBKMGDSyR/ADJYyYzYBcqDDvoN+BfIyvEbK50sHuDe5qnmHqaV1x1Df3l7ju9cYgEEjdllO3g0HqFYgYi9SscICwcoYXVjbfddivH+66gShMboKckp9APzj9P7CMB/NBp660o27xePkspKMBB1IkFCF+sRsVOTzfccIPU5SeeeEK2IdQNGivg5qabbqKpU6fS6aefbthGBygRDP9aZYjT0N9pBsKOr9bQnooKmn7s1wybwAB/0FtEvFEX8UnOd7/7XRH++DwGn9KMGzdOvjHFrlhwCzsoQyA3N9e7q5YdsGMVNuD4xje+Qffdd58cagBFjUMJsA3kF198IXLtuuuuoyeffFJ4h01BoIzRCPn9738vw95Q3NgA5LLLLuV4LWLle7ARQhiA0mSeZeXkGBbxAUb/kBYclB1PNDdjxDGFyblyFt8S20sgCot/0NDA1Uywi4rYTxAb2R9W1HwFugydGrJHuYuMdDgAFhjpRUYStn7uIPE/X9U3ZzCHAhpGEB6A/oQjHMJIdRO3gAG+lU9Y7NzFQuARGgA4RQXAvZ07KwkvFJulpd1unH6B771A6igxPFPDmOAVBLPmg/AuDoSwIBhjDQPA0WzoNaK3iR4LephbtmwRIWYH/Z6G+d7st507q52G+Z1AbkLB6kcw8gNuDaskFqhp3BMDkO3BYoIe3nnnnSc9bShMzLeiV7lq1Sr62te+JsoZQ99Y+YveMTZtQAMECk73LLHv8t/+9jfp0UMx3n333fS///1PpkSwyAlhPPPMM9IjhXKG0hw1apQs6kFPc8CAAeIn8g+f66BxA8WM8vf222/L/dy5czk/N3Mc91Baqmpko/xg5MuvwgcgP37BbOMGzMKjSEkD9cccjtVdLGTORCU3DQuTm1hov1Ca3QkpnCagJ+YiMLgMxq3HydUyas8hX8aMHsM9zWLcSaseIyn+PTCYlZ1eJW3XQ3MCTvp78MEHi4DF8F8XhWKDeKUpnkADAIoIi566xF9lm5S9QRPG0aQ5h/FNaD5AUWLIFSt/oeAwv4ihbMzxYjgWPUooS/QoMcqFT2Ywh4ndjtAzRy8Tn9NceOGFsuDpoosukiHV4447Tt4/+2x1cAEUK3qbAK5QntgEAmnC0C1OCIKS1OEhTogLpqIwvQJgjh1l9uCZ0+XePAroIja4StNhyPg8YFRUPXHvoitCi6kYgQCiCYSzDjqwpdXDPU3V+0J2qhWk2qyVJZu5GrFJ3AG+Z86RHezchSIoSQzpacAOCEd5akTiNl5AHILFAwoFQ5U4MAC9aDtIyts7qL2pGYwQYWjmtNl/1Gs0MnDyDhQxepw4lm7KlClyTiyUJ+o6lBlW+mJhHOYWX3zxRVmlDMA/KDLM42lC7xRKEcDc5auvvio9UJ0v2AkJDXH0ZvUOTRjChR0UMuzQ88VoAUY8MOwNN4hLSUl/2ldVL/6olJlT5yJa+G2jB2B/U76Te21nNWuYzYDfM3MGWdwBwd41I5C9ht9zkxGFCgU0LzcnpNwMFYYdzK9g0ZHeRm/V6jX07DNPswl3nXTE3CPp+OOOjVpBIBz4hG3qkKY0rgzxElkIC9voYTXoZ/M+o5NOPCFgWBAwS5YuE0Fw0IwDI44ThIveQiseQFowVI74YU4jXIDXQvyz6quVzPM2OelEyU888QdsPJ52tX+td7GR8zmEdEBwawHrJFD+Mf8G5YKddxCWuU7oexCOWcMQJHo7sAf0M/M7gJ2dBoQ66mcwN8Gg3wtEABbDoBcIJYReJ4ZSly1dSp9/8QWt5Xq6fu06euflV+n9d96lusYGWrJiOa1YsVKUEhoW6MVpaH+xUxEWBWFeVzeIUS9hxvmxGD7FQiv0+qAUjznmGOl5ehvTDM03wMxDKGPs5QyFDz9hhyF59FRx9iwWa0FR9uvXTxT4scceK/tDY/9kDA9jGBdDtosWLRK3QwYPo/kLPqcxY0ZKGKpchua1/zZ6gcD+RJ5tnCZ11dMb8ZABEoQRjt82eg5BFgIhczCcAHgXArEdFgMBMCNgbQZZzUDAhUCAyR1gfg+w3psR9jMYuRCiHGIoQy8EwoCpqZx2QTD/A8H8CjZG1hu2v/Diy3TWN89kE+466JfX/5puvfnGkHEIBIQDn1plTq2NsuO4YTuyD6eR7N2zl267/Ta6N8RCoIceeUwK/sU//IHMB4YLxB0rL/H5DPIMrHQ6PUhLS2sbx6+dhV/4m0IjLkL8s3nLJsrhfC0u5jLUgd4kUq080V6hzDdhhR4rMyhnFYYd16KDLpsQruhFQBDDbBa8sQJ1Gz0iKETMsSFP7QB32DMWQvxb3/qWuIMdNkt44YUXRMnouFnjh3SY6xnKMt7VyiHSOoh38U4gPsBfDIVifhDb8GngU5krLr9craTkd9P4gpCbO7l+sX8F+fn0zNNP0yWXXOIdIgV0mhCuhk6/1ayh06avwQC/ZYWnEY7ZTgOK13wPHpoVN8KHHeY4oVyrq+toy+Zt3HiYzOWVnyMKnSH4zGG6p5wER2IpTS/UyiycOlE6oFgYJRSAY8H8DwTzK2al+ezz/6Wzv/0tdoBMaqfrfvUbuuWmPyeU0gQQJyhNVORLLrqQ2jg+YAniGypueI5l7dmsADQfnU6PVpqIXyQVU9LAhJZwihzV0mH0ElJUmfbueo1nSK9PaaJiIgyQemq4VTcxAQLUrDSdBNJgVpqB/Ic7KE30Mr/5zW96BTWGCDEUCRkCN2ahb+cX3GDuDTzT7gOFaQXc66s22wFxQfyg+NBzRG8MQ6tQpLfccovhyh7/ePBBKi4qkoaBRqD46bQgLDQacI0HEA4WE6EXCgIC8dYKrGVLSmbFjRtXacYMpQkTCV6OoVLB3L3wVhqjFOAD28SGUQz50hP8jgeQdVCYNTX7uNI1SuNLypTer5QVKTY9QHqF5KlKvLZTlrgR66ihlYOdMIwXzGGaSQPDjwAUJgQ3Fq9gcRHm1fANIq4gDBHi0xYrwR6LYrQZV7wfDpn90OHYEYYzMUyJuUYcVr5582b6wx/+4K2fWlFrMqO5SX2f29sAfpuH5635Y41zW1sHVVTsJaxF5KeGrYtYkXhK01T+/atCd0OFnvirZ32VsWf57Ty2bt0mW72JyPEmU6XSnFYWu/Jr3CQ8zMLZKqjDBebqzPN88QA+y8D3kz/5yU+k54lhy74MjDTpDevDQX1dPa366isxS7HcD8pmdyDxlGYPwzo8E61QcdGDMLKsuLhIFmfYQytKLYmMq192u1Kqp4DeIz7zwEIZXScxTKenmfoi8JnL/fffLxtSYOcfDTQ+rL1lADsBDR02xLhDwXRlkRNwlabDwMITBVVAE394NvGAHIMMGjRoCOXm5lNHp7VHBAGlCeCrXzabnyUetIDWQ5uRkn7XenWSAChLLDgzK8pwlCbeNy+4AfTwp5UA/b0kAP/jQTqsH/zgB/TKK6/IUDWUJw7oxvoNPEe8Me+JTRVAkEU4D7a2lu2411lbV0ctLc1e/riIDgm6EMhYPZuaQqUl3bsQ6NH/PEE/+P557AATz+30+z/8iW743W8TfyEQO8S3jWBLqLjheW9eCATg/b1Ve+Td7KxcWUyh5jSF+5Ix8sfXxqZmSpfVs8YWhw4mRpdN+KlWHMd/IVAwWFfPRgOEh+FZKBstV+IBzTM9WoChzccee0zSYOWhWQagN4d3sOAJQ7ooQ0grrqiD+h5m+IOFQJA32g380mYNpBNu8QyEeJmVndl/bafdAzBjIRiUM/a/3bp1q9hDbj/00ENyaMJPf/pTeR+fuMA/AF+fdsAfNqOMbt5cRqeecgpd8MMLWTzZrOplt92zEEil1V096ypNeuTx/9CF53+fHSil+Yc/3Ui/++2vXaVpAp73aqXJ7lDcly5dTMUlRTR0yAj2BwIMHgj3JWPkj6+u0owMCA9KE987RlP3woXmWaRKE9vcQX5g4wHMaeMZ5COEL65mwsIc+AX5CIUGt3oYGFf9LtzBThPegT2em91qM57BrK/aDvvMYrEVyjV2EsJKYHwzCjdQmkgbdheCX4D5PF/I52efeUYU7i+uvZY6Of+scppVtWySkBNMafIryiryvDOiZShNrJ5VPXRLdsQECcIIByvbwTv9PagT4fg46sIReHfSN3IHhdlF34Ku2NhDtKh/EZuiUw6JCAh7by+GGdXbyQyzndmNttNAzxEHZONbzZ///Od0zTXX0JVXXkmXXnqpLCqCPXb5ueCCC+jcc8+l733ve7JxOz5vwZ6x+LQFuwV9/etfl43WscEB9oPFzj2HHXaYrBzG5gTYWB3b4mE1MDZiwIpf7DCEk0swF4s4YPN3nC2KzRawccLDDz8s7y1cuJDeeecdGabVyheEvIGSgNxRBEWsCEBv1dfYUb1FP2Jbq16xc6OgXUdCGoHuHSCOow/aXsPkLkpyJbrDsLa+zb1vF30D0rjmbMzLK+CWMIa6UFlcOA1rby/eiCQ89DQBvBOMAChZkIadu1gJwG5EJ510khw3ht2H0NvUzzR0A8CuMSCAnWHPPss1GMLnWKSIn8/xhqs0HYa1IJqHR1z0HSDbKip2UH19DTd8sLGBCw1bYewi7sBwNrbOwxWNcz2KFWl+WBWti8jQRaKbGRoLc8NpxZgRbVi9rgDo6BgF2RUwfRdV+/ZRfYPa8LqXlTIX+ymgLCHzYpErejSs18nOPgK3G+QwvMOzRpl25zT7HrQ8GjlihGyOrc8xVcBDtyGUyIhGIVmnZeIBKDlX0fU8XInuMHyVR1W8/amnGU1Ke6sIgGzKzs6hzAy1CbkCUmgmgK+uHEsoRKOYukOZIYzuUM4ugmO/UprQX05RYBiVx+idYGWbhp0/oSgQ7NzGTPDXqwxCAw0C3SgwLgrhe+FllzcOTpH4iV8furgJQZu3bKS9VZUyp6nAkZXlg1xtQAbHFPQV7yq+OEG9EYne20H6dBrt8sRM2o0ZVjdOkPa3u2GNR6wUCHZuo6VgsHMfKbk9TcdhZJpXGXR/Qe8RJFAytUrAZu34lgywz8b9JG8tSPQybVaaidhAMDcIXEQOV2k6DGslc+c0+y7GjR0nm3771GggsPBJPNnqIkGhh3hdpRkdElui94Ag8y0EUgXSLZh9F6mpGZSSjLMLVc+jE0OzcgfArPPWbO6bQLkNt1fVV3tfbl104QQSWmnqShLvKo5wdHXEB8dm6J4mfqMlAP7obz6tz50iAJsxqPSEFjCsRgxTV7/A+kAEliRzWrDvg5DN+7ESgHSAb7jnYLq4sSO4AwHr1q+lPXt3sUntrIIzNpOZ5MqOkRZA8gYWcYROizY7SQC2mjPPvweDdmfnVzgESL6AbzbPnSIdRjTA++ZrKITrLhbodFkJ+aF5GQ40T6z+gGLhWSSIJL6xIB7hdNl7trG5RQSaBMSEK8jKaKsZsO5+w08NE8PkDjC/p2FnBwSy17B7LnvPcpoKCwvFHMyPUP4HBzZSbqXs7CzKTE+j2+64i6679ufsKfOzs53u/su9dNUVl1N9Y7PhPnIgfjoNGZkZ1N4GxQyFFUu8zVDqD/mOcHBw71133UX33mO/9yw6Gqw36N8PPyo7ofz0x5dQc6vaaFo9h39qk2g74H3sCeo76T4+aUHcEKV0fAzeHl44sr0su8Nm4uvWfUWF/QtoQMlA5ov4iod+QJqRFr23qO+UGw3xMGaAp2iQYT9Ua8MsVuBj+fnz58v+s7fddptha48///nPcgD0KaecIluymetOuD1QvIO9Z/XJIPEC4qP3nsXWcjhOC5ud/+lPfzJc2AP772LrurPOOsuy7VxXIC16NyDw0em80UDZQloQhpbFGkgn4njZZZfRzTffLIeCB8Ljjz9OmzZtot///vcSb2ue4R55A57Z7TjkBMAzveMSykA8w0H+6YMBguVjJIh/k6IHgYyA4oRAA6HixIMQhjrd33+1LJCZmWVcM5kypNBbST2zJ/Uc7lTGIzwUgrQ0kEpXzMT+ZaRniL/w3ywI7aAfwx3cA4ibmXD4Nlad2pPhxps3DqaF/dJpSeNGDMJJ5byBOaxw2B3eBcaNG08lxQM4nSlsBz/xTBE2gE7jtOMq+c/pwvvKXbpByi+nSPNNlzunCKioqPDbCi4YIFQBvKvjBAIfrH7bEfgEtyg/4b4TDelwdFiIYzhKDXIDboFw4wd3Kv/t8y5Wgt8IB/Gyhq3tQ9VbK+z80jyDGeFC/ljjEgtpmQezDt/qxgnS4cB/hONk3iS00hShzilMTUMhQAbh6jRppakKrLXg4plcOR7oidsTntmTDAWyl8nsTzJ7kspm2KWw2SlKlavilUoLxzmc+mdyg4Kp02MXhj+ptMCs8sX6PFYy8p2VJZS03Nu6C0yIE1rDaP8qRW/OL5VGDNWqe7xjCkfCBOmy4QwpHuuwfPexEhCJwNW9Arxrjl84cYIbrcBwDfe9SMjOTwDhRao0Ub/DIR2e+b67COHqazjQea3fC+SX9ZlTZPY7HuGY88POPlbycjlU99j8PLDZMISBUOE5ijgGZfXaOgTgRDpRxDX1KnRjFvYENm7aRNX7qtlk5TwSbk685b7XZZSziETBmmF9L1p/XMQGl++xIbymiYuw4VOS6ophAQ2LaBXY2fUZJHjdK8jPp/QMNVRrD5vc8+NJn83ZhAR6HlphIGf0LLcLF5HAVZoOw6s0jQvmJQG5xQ8TnGiyszOTi54BNnQaPnwkK85+ho0GMqWT88YscvmqVhAZUG5c9C5AaWJOCoDqhPCza/dhLsyFi0BwlabDsPY0NYIpQf3MSi56Dvi6p6GxnjyeFr6DkkSe4KrIBzaL5HUzrLcjKyuLFi9eTJdffjldyvTTKy6nyy69lK762WV09ZVX0VVXXUXXXXcdvfTSS77GrlsRXVjgKk3HoSuZasOideuib0HLyQ0bNtDu3bvZhBPxtcLEJgBMrpLscxg6dCg98vAjdNWVV9K1V19Dv7n2OvrWsSfQ12bMpN9ddz1dyfaXXHIJPfTQQ3JuZV+Dq+C7B65EdxjegmvMnZgn3WGMhFz0DDTvBw4YSDm5uWxyhZEZfVU4oy4WlxTTmLFjaeToUTR02FA6ZOZMmjNnDhUOLqWRI0fS6NGjRbma1yL0VqhGnI+0XTSw8wuI1r9Ehqs0HQZ6JArq6q5U63uAnMAi6NLSQdSvoEhWRLu56ENClGlUT87j7OGDqWTyOCLZ/ELBVRQugsFVmg7DW+HcetengVH1mpp91NzS4A6xJyKg9zlbPeW7qWZdmfqQ2oWLMOCWFIdh/U7T7Wn2XZSXl1NtbS2bOA/dbEwYGJ1MQWXFLtqweo1x58JFaLhKM15wlWWfx6BBgyg3J8e4M2P/ztu+PnyJ+Os0FA0bQqOmThazCxfhwFWaDgMbBAuMSun2NPsekGUYMCgsLKLs7Fw2Y0Np46FUGeSpztf9L3/7cpmGssQntUmcvx1tHZRR0p/6jxmB44kMF30ProzpXiTbtRq5HWaYHGxVhuGPY2H1ILxK0yjIKan+G7i76P1AKcQ0ZkXFdqqprbLMaXK+4lxNOVvTICm2MO8f6Mv1FAoGlMz5lZyaTDXby6l8xSpsumy46DvQaXHRvXB7mg7DK1CMsowjqlz0MRhZuLtyFzU2NrDJdMidV0Fq2v+QEILaSMK+XbtpR1mZunHhIgy4Ej1e6LuNcRcGRo0cJeexCoLqCX7o5nffAfLSyM9h48bQlFkHqxsXLsKAqzQdRltbm2FSUtT9XKFvAnOaeXn9KTMjhzo7kafIT605tdS13rvoU+AsTSnIp+xBpX16TjNS4HgrF9HDlegOQ59IruEqzb4HjD4i27Zs2Ug1NXv5PkUNu0s7KJBy3H+UZp9fe4DogzjL9qzfSGWff9kn5zQB5IWmxsZGqquro/r6evlUClfYwaw+nSJ5bpVRLiKDK9FjRSD5Ydgn9ER9H5edoVDLAqa5pZVNesFFGAozwXkC9OUyDeWCUQSt9xsaGmhfVZW66WPQjRfkBw5YHjJkCN188830y1/+kn7961/TddddT5deeplhvk42qv/oo49o/Pjx8p6L6JBwSlNXaPMKYL86DrODFEp+xKunKeE6QTHALDxhDMULO/jpGB2naAkX42qHUDzDRQOCdfy48VRcXII7Jjzl2MoRYLg3x9xkFk8MD/18dNE7gAaQyhmc7jZ4/FiaNudQS0HsG9D1D1fImdtuu43+8Y9/0D333EN333230L333kf33Xc/291Nd955Bz355JN0zjnnyDSSuf4GQjhu9jckXk8TFQIZbZFjQnhmvneC8GOCWVkD8Rye7RKXaAg/UQJ81pXKy9tI/TPY5X0/FsJPCHR5x0z8ownZlpGRxVfzsB0iy5JWFKemrjD7o3nkBFlh5yYa0n5FCqs/oSgY7NxHS8GAx+KECV8NpaSlUlp2Nt8Eykv7MDRpN1ZY3cVK2k8rrO6w0TwoNTWN0vmayWW4s6OT0tOVPeYz4Q49U1w1zH6Y7QHrs1goEOzcRkvBYOc+Uko8pWku+8H55yh0UCigfujGOHQ//NNqL3b6DqzxX79+He3Zs4dNRjWRvISrvp7S6AGhoReSmOfTwqHeAsSkg/MymWnr2vW08tP56qaXI1weKuFOVF/fSIuXLKbklCTj3f233DqJxFOaPQxrwXbuO83eX6kTDcjKgCMF3t4mYDYnPiCU+zKQUxhgB6D+E1UIclOFy7BKqRJLrgxxAgmtNLm9Jdd4ijNVGDu9ldC6YbsWunAGt2GTvOUzq9a6zz6eQGULJyCzE8QtImj3vageW6MyavQoKuyH7zQ5T03p8xlhUuQrAX0TKLeZmZnGXWDk5ORQuwOfZ0Dx9nTvE6kYNmkCTZ5zmF/+9vVGgUZeXg5Nnz5N+JwUQeO9O/KlL/M4oZWmznxcMGoKfeY8IQytnnHPliZ47yMth+we8RbCLRt0QZO0xIN0OEhNGGUaQ9FagEZaB3Ra0BDuEg8niP3uYM91vCSv7NyZCW4MAjQfkMf82Jsf+EELHrxSLXnkDayxMrMjbqShwnUuLAAKc/78+bKI5KabbvKjG2+8Ua5YWPLGG29QUVGRvIM8jISsgF138cxnB96xBZMMFrR6qKOpychTH5n9CEbab414pceMcMJAvVTfjCu3mv9Wd3akEc+06Ctgfe4UAUiDvtq5iYaS1q9f3wmG6nmKppZWYbAMKxqMRm9JM133nHCv7cxXw+gF2xgmhuWhfs8MOzsgkD1gfgYzF3tqNdKBCt7ewYKdeacZaEUwv0NBh4UWeGZ6Kl1w4UX02CMP8RPwqYPefvd9Ou7Yo6mxydiTNgokJydRKyo3C+gsFm5tbfH5EBt8wDdcVfuqREDed8/dtv0ncBGl5V8PP0IejtdPf3wJlxuP4j3zGH92HPVynw3NzU0sqLOkEMYDiEtraysbWCFkZIbdO5J4cxoyMzPoq6+WU7/CAhoyeCjzRSlJ2enblxKpJ01NzZSWli51I1AZixXwF3mTlaV45mQ4WBRSXV1Nixcvlm/7gNzcXNq+fTunrYmGDx8u4UEII/zDDz/cG49ogLyBvxkZGTHVvVBAnFEGUDd9m44g9yAjkimd071tyVKqqqykWSd9nRpbmg0X4UOXM1zR8EA5i0cZgP/Nzc1enoUKA8/xTeaaNWto7ty5EkfYhfOe5pkTIwp2QPxRlhGW5lk8oHmWnu5s3Uw4pQmAOcgUxHVw6QARcUIBeBbM73AAoZmVlUkp7M2FF11Cjzz0L7ZVSvPTeQtozmGH2CqfcAGfWts6pOJnZ6Z70+M0EE5za5ssfrnt9tvo3rvvChhvuH3okcekwF9y0YUh46Ofy5V/wLPsbDUcCO47mR74B9I8y2KeAeGEISWBHaJIbNlSRnn5udS/EJ+dmAGftG9KAUBpQvnEEwgHyqq7gMMHUI+gQO2AehZt3VE8863mjBfwcX82VscGwJ71ZVRfU0MjZx5o2EQOlDHUAyi0eAIKQPMsHMA9y3eaNm2aYRMayFPwDEozngDPdCMwngAPwC/wzSkoDZgo0BKvG2ENzdqacap1o0JSfomJfxwn8Ru/4UOnT70bmABxyqTCQqvXsAdpeydIectm1bLGvZB+HgYBI0aMCqgwVfy1WdsreMN1gDSs94DZXSxkBoQZBA0AJWBWmGb35mu4ZIbdvVOkYb3vAn5UPG6UUpjterg9fNKw3gNmd7GQGVY7szsrAejFWRWmnVs70rB7FgtpmM2A1V0sZIbdfayUWEqzB6Eby2Cqi8RAY2M9t4abjDsNZDTGT+LXO+pumMus2YweB3qEGugRxrNX2F1ACiWVnJS2PdXUuL2CKCXxRCEaQOqTKRdOwlWajsAnaKzj831VxuhhePzaEYC5gkTG5s1baN++auNu/0NFRQXt3LnTuEss6Bq7e+t2WrtkmXGXOEDjB/PTS5cuNWxcOAUt/xISulXsU2nxgk8zehdHeK2MOHAkoqHuBIKTHhT/7961mxYvXU6LWKAsWrK0C63bsIlWrVol8xLyriXedtRXoBs6/fsXyoIgfyAhapgmEWHuSebn53uHZ5FeTX0eSIORjn4lxVQ6YriYEw0YXsd+tECilteeQGItBMLFqNgQ5thKqnRAMbVzeYGTQOUmmN+hAC+bTQuBvvu979PTT/6HbcEn30KgtihWAiFaIPjU2qaWkGezEIdX8agDCKu5uVV4h9WzNTU1MoGOhgAWU6AXrVYKwm2ybHb97W9/m46aOyes9Gk2I+5NzU2UnZXlZ+cUNM9aPIpnWVlK8YUTBqJjRMmIG+a6cIWPMGhSQNlp5PzHlmUob4CTAkqXTfiJoVLzopZ4hAN+gdQ3m8r/9nZkLp6rhT+aIg1fhwFg6BcjFXohULx4Zl3UIuEgKKYkmDEsC+dcvzojHKLV4aC+oG4onik4lR4zz/TiKb3gLFQY+l18ZmPyJig0z8yNJSdh5pmqm2ohkJPhWHkGfumFQE6Ek5irZ/kPn0KAUQNLirwrQAPxK5jfoQAvzUrz7O9+j559+km2BZ86aMHnX9Ahs2YqpRJhMHCOqMGneCpNnXxcGhrVsvY0JMaEsi3bqF+/flRYkGfY+IBVqlIu/F/pAv0Yce/tShN+VFVVMi/SWegWGO8K52HwAmUnUZVmbW0165J2KsgvNNKvhK+WB5GGb65nPaU0BTobuZA07t5DTQ31VDR6ZNTp6Y1KE+95Wtto9+5KGjJ0ELvVUtDnnx00z1ylGRiQLYkF5hcUNRhnZh5guY0LrJmSkmJ8hiDxioy6GxKuwST0zqHoPTAwnn76afrwww/EDHtYa0rhFjpe0/EORH0FOgu3bd/mPYdwf8SevZVUWbnLaCgrUWGtU30SpkK5c+tWWr98pVgnGpqam2nt2nViVnLJKNguYkLiKc0eKReBhz+8PXP57bs46qijaOLESWJGT35/AOaD8vLzjTtg/xI6JcXFNHDAQOMugYDKaEi+0pHDaey0yeomwYARo9FjRht3rsJ0ComnNHsEPpVo3SVFK9O+3EBHz/LwQ2fTpAnjxIyefKJXQWRjcdFAys0pMGyAvt70iQx5eYXUr1+R0fP2L9eJACQrp6SYilmxdFpWvfd1YB4Tx4GNHDlM7tURdyi/rvKMFQGVpnmY0W4cONBzG6c+WB7a+RsNnPInFugoWD856euCFsNxqVxK3nz7XVlNC7M0ADi9SHMk1FeA9GGAYOfOcqqrV5+cqPjvX0pzz55K2rWrQnjBHBC7RABSglqK3Kzaup22rFhFScaajsSBmgNftWq1ca+nq/avMhwPBFSaLiKD7kl27WkmRiGtrt7n3Zd0f0FzS4vsK7y/QZdZ7Hfs8ag9W5VV3//kBPFHHe006mlbcyu11DeIOdGAxT8ejyq/SHcfz7peA1dpOgx/pcmtuz5wuG0oYDHQOd/5Nh1xxOFqFfB+ACw2HDVyNPUvKhbhkyBtn5BQwlVJ18GDB8u8ri7TUKZaofZl5YkUgDra22nAuNE0/tBZ3PVMrIKNfMJK6+nTp6tGgqsxHYOrNKMEvsgQfWiURV+Z9C+c8umOCXCHdy1fdPRaQEbilBWskkXctfLANVLqS0B8JU87EXGQ3DAlJrRQNStNbYYAxoI2/alJX4VOl6RHGrTJ6DurvwRo3NpB519fzrfeBldpRgFMsi9ZvkLMmONTBVNu5ZkPSd5vqgC4gfvyil20ZVt5n1Gc+yO6qkfYdLVNdCSssN1P6p6rLJ2HqzSjAD78f+XlV+iQQw+jDz/+lPJysryM1K1ZAZdX/cmJfn7XPffSSSedZBnGddF7oYUOrnYCiO32P13qwsV+C1dpRomf/vSntGlTGR191Fw6bM5c+mz+QrHXOyspJFFeXi41t3rozrv/QmPGjKOfX30lHXfscTRqxLD9Zn6w70MrzEAE6KsLFy4SGa7SjAKY3xtQ3J+uvfYXcr9g3qd0/PHH088uu4IqKyvFDkjPyKB7772PZs8+hH5xzVW0edMGGjt+Ir93rTxHr9TtpPQ12ClMFy5c7C9wlWYMuPzyK2jIsBFibmqoowf+eh8tnD+P7xRbW5ub6dabb6QVy5awfFU90Ouvv54GDSyRfVEhc12x68KFCxd9B/uN0tTKCfPiThBGVrMz0+k73/mO4bHeccMC2GP/2c52Gj5qNJ199tnSU9VznYCd/5oCwc5ttBQIwZ45BT0FbI1TLBQIdm7tSDdm/Ah2/GMlAFfzXLbVTSwUDHbuYyHtZ0/AGpdYKBDs3MZCwWDnPhoKBjv3TpAZds9joUCwcxstBYOd+0jJ7WnGiGuuuYaKsD8nK0UFS6ZBmBq7BP3m17+h3OxMn6KwunXRKyC5gh8zuXCxnwCKwUVgeJWmbimbGsy28FsdGgfE238ngd7m0MGldPZ3zlYWAaVrJ40ZN4HOOussuUOZVK0WuXXhwoULF30Ebk/TAfziF7+g7FychmGzHNb4aPqPf/oj9e+XLy6gLDE66ypNFy5cuOhb2K+UZjx0FAZe8fnIxRdfrCysmrCjnaYdMIPOPVvNfYLhcOEl/sG1i72JgKQk00HgcSJA7/qCoKDv40IcGHZK8oaBcB0mQKVDzUFwMF3c2BHcRQodTjwh6TDNg8cL5l1/dLqcIjN85Sx+fIPf3cGzeKdDw5w38UIipQWIR3qS1q9f3wlPdSIam1vZzAHhzyhw+rk260iYC6TZ3rgI4I8fzA8Z+h0zwrUzw/ocJ4MjfkVFRXLyiHreaTv8HMrvUMC3mRUVFTRjxgyq2rObbTRfVM/zmeeep++c9S1qbesw7QOpIgIjwtfxswMUJjZexm5DmVmZ1N6m50+dBeLQ3NzsdwJ9PID0t7S0yKnt8drkAWlpbVWbVWdmZnAZCC8c5ELo0uDLP82z9PR0KW/xml6AvyjTmmfxCAdpQRjwG/uWdj2xxxkgnMbGRuEZzPEC0oEykJOTQ21tauN5p6HLGa44vzKeeYNyhjBgjkcYAPxF3QTP4pn/upxB1sQznHjUzfg3w3oQYJKZUQ7xzA/wH6d/DB86mE455RRlaZIDc+YeRWee+Q1ZMcuuxU5BiWdkrIL6ZtOOAMRd0sL/vnecAbyDn9pfL8+cDUb5Z4Slv1DVYTsJnRYJh9OC5DgbhJEQ/Boem8tZPOBLi+abszwzozvSAsQ7LWaexSMM+Kmpu3kWL+i0xJtngG4wxyMcwBqOU0jonmZKagqVlhTLPYpaoOIWyu9QaGae4fOTVWvW0bRp06ijzcOeMm862+md9z6g4475mrjTcbCGFqoagMvopaJFlpWRJnah3gkXOj46Tk0tHkpLS6MUDhR2Os5OQJcW+Ndk8ExDhxNLTuj3tR/gWVt7G2VnpEeUhkjjgNas8CzOZzJ2xygAemQQMmidxxPmHkA8gTMl0TuPJ8Az1E30AuMJ9ACxl3W8yxlGATDSEE+AX5DR8S7PKGfgmXkP8FgR3xLb0zAkJdoZIpT5x2lCIwZCBj3JyRPH07nnfleFxgpz5uxDRWFi8IFtvHHAnu5msvppJYl/Zwe7VS0m/Fr9iJYkDMNPQA8vaTtczXGJhSTeILn3heGzU9doyfs++wdIGGyBe7bu4t6O4Ec4ZAbCMbdmJVyHSANma4vZ6jZWAhBGvNMCWO3M7mIlDZjjlRaQhvUeMLuLhcxAWsx2VrexkEage6dIozvSAljtzO6ipcRWmj2A6667njKycsT8q1/9Sq5gsn9WunDhwoWLvghXaToIbMA+dfJEOu6442jCpCl0xhmnq56aesytFMPgwoULFy76JFyl6SC48y5X7C973333yXmZetGmqzBduHDhou/DVZpOwFg5gkVPbR2dNOfwQ+m4Y482Vsy6CtNF30Gsi+JcuEh0JGNiMyBCSHvzu/5mw5DAgGzxEVYO+8yyoEQcKTsXLno7zMpS1+WgssGFi/0Ubk/TAdjpRZE3rsxx4cKFi4SCqzRduHDhwoWLMOEqTRcuXLhw4SJMuErThQsXLly4CBOu0nThwoULFy7CxH6lNH0rXGMnFy5cuHCx/8Htabpw4cKFCxdhwlWaJqADCYYEYopTHUwcvIzdgszAPcju0zjEB2dqup+wuHDhwkXPYr9UmlBMWjmaCXrs03kLqLm1zWvX1tZBDQ1NtGdPFVUy4RiwVn5eXV1DlZV7qaamlu894lZDK0Az6SFdKMyKXZW0k8n8/O1336et23dQKnuk7bT7XXv2UlVVFfthWLpw4cKFix5ByuWXX36D2tFGkaetXZnxByFtegYEMgP+ZuNq7Z+Z3ADmdzTCtTPD+hxHz+Csvtyc7C4dNCik/770Cl18ySX0r38/RJvKNlNh/yL6ctFiOvHEEykrO4s9TOZrDm3bto2mTp1K77zzDt111130wQcf0Pr16+mc755Dn336mZxksnv3bjr1lJPlCKpU9ruOlezb77xL77z7Lvu5hJpbWmnk8GGiABHLvz3wd/rmN79JmVnZ9PEnn9Ky5Svoe+d9j5YuXUINjc0ct5coJyePhg8dIu6PP/4EfraUvv2tbyD6Yge/OmFwAJp1uCD/cV4fzlR1GuYsauNw0tKcO+PODISDoNo71NFQkYSD98JJuX9auJHFZS0e5xyayzXCwbmd8YAOB/xSPHM+HGtaVDkzNzedgTkcnNkYr7NBzTzD7klOntmokcg8665y5nTdtOW+3fZZ0W6ppTcx9yJaf6J8zwrtzZYtW2jr1m1UVFREn3zyCd15553eo7wee/Qx+ulPf0rz5s+jbFagTc1NNHzEcBo4cCDV1tbKYbBpqWk0efJkKVw46BaAwkRPFUr2jDPOoMsv/Rldyv4cecThdNGPfiw9WOC6a39OP/zhD+m5556jZcuW0e9+9zsqYqWdxUr0//7v/2jB/AVUV1dHe/fV0Jtvv0vl5eVCwKIly+hnl11Bjz/xlH3muYg/nCmKLly46INIaLmrWxz49bU9FKDMZ82aRd/5zne4d9dA55xzDv3mN78RJQjzHXfcQYMHDabqmhp+N4kqdlZQRUWFnGoOJVm9bx/t2qXudcNg/cYymjtnDh166KG0YMF8tkmiV19/nV58+VV66J8P0p/+9CdxB6V30kknSq8VSjKVe0LnnnuuUNWe3fSDH/yAvn7cMdK7PfPMM2nbljJ57/Irr6aZBx1I//nPf+j8886ljz7+1DuM60LB1MjsgmDPgLBZGcofm4Ds7Fz44PLHRV/BftFZQXX0klE3M9Iz6N1336WbbrqJmhqb6G9/+xv9/e9/pyOPPJLu/+v99K1vfYteeukl6VGiez9u3DgZuoVimzt3Lv3wootoypSp1L9/f+owzv+67bbbqIR7o8889QTV1zewTaf0Os88/VQ6/wc/pKeffpo87Z0iIE49+ST69rfPEj/bPG308ccf0913301HH3s8/eD88+jzLxexQj+L9u7dQ3PmHknvvv0mPfroo/TJvPn06aefSnjo8VqB9EVKvRl28Q1GoWD3jiYUEDt7OwoFsxLQZqcVA/xzipyCnZ/hhmF+N9x3IoGd/7FQMNi5j4aCwc59tBQIdm5joUCwcxstBYOd+0hpvxrhM7Ozs7NDFN6QIUMoNzdXenQYUoUSGzFiBA0bNozmcK8RyMjIoD/84Q/cs9xFr732Gj355JO0ePFiOu+88+jUU0/1Ds+i5/i9731PzFCQw0eOopHDh8r9gQceSLt37xJF99f7/kKvvPY63XvvvXT88cfTrbfeSkcddZT0REeNGkUPPPhPGj16jGROefkOWrZsOQ0aMozDXERHHHaoDOkCU6ZMkat7GoULFy5cdA/222kxrHg9+OCDZSi0urqa/vWvf9Ejjzwi85vbt22nnTt30pIlS2QCGRPW+/btozVrVrPSa6b8/HzauHEj7dixg5qbm70T8w0N6F0qPP744/SNb3zTuCPpSRYXl1BudqbcL1y4kOrq6mnlypUSFuY3V69eLUr57O+cTcX9+9Ha9RtlqLe+tpquvvpqGjt6lLwLv0aPHU8DBgyg1WvXU2ocFu24cOHChYuu2O+UplYv6elpsiL1mWeeoUMOOYQuueQS2rNnDz388MN0+umnC/3219eLYoTSBPCtZF5evihNKEqs/EJ3XT8/5ZRT6J6776aDZs6WFWg///nPxf7uv9xHL/33ebryyivlfuv2crrxT3+kr776ivbu3cu9ytHS283KyqLS0lJ666236PMvF8twbP+i/tSvqJgamxrlXQA9zZmzZsrc5gknnEDVtfWymjYcoFOKTLcjIDMzwzApxKMTyyxjWJaIxUXvx6kH3o0d+0QdRUC9ceGiL0LLyoSErph2Ygc9zbKN66U3iV7kjy7+ofTcMPSK3qPuNepx7I7ODu6R7qMNG9ZLjxDDrGVlZaL0tGDDEO4Rc+fS1q1b6fnnn6cXX3yRsnLy6JqrrqDvfu/7dNlll4q7//u/31HxgFLpMWJxEZQ2hn5bPa2ibDG0e8MNN9Avf/lLev+99yg9LV3mXTXGjh1Lzz71JF104QX09RO+Lit8Af1Ji1UZmgkLh/ZUVdOLL79CTz3zHD393PNCzzz3Aj3z/Ascp08ozVhdJH7BTwdIxw2cwjU5OcUvrnpBOFipSd9HA7wGwqczCAfANRyyg188LI5QPuw+A9BlJxD082CkYb2PF8zhaHMkZIWdnYbdM2sjwex3uKQBs12+xAPmcOMFpCXe4Vh5GC/05XCS1q1b14nM0BnS2NzKV84g7lVJYEagVpKXTWbAXEBN1ixjTDeA6aH5fQ07OyCQPWB9BuWDodV+/fpRe7v69lRXyMysDHr7rXdE6WEuE59zzJ55EFXu3SeLfNau/or+dOPN0tN8/6OP6etf/zp9vnAhvf76G7JQaPz4cbSde4tYFFS2uYxuufkW+sU1V1Ebe4/PTppZIWdyT/ahRx6j5557li666GI665tnynecLS0eGRLG5ysvvPA8/eY3v6Xvn/99Ov200+mKK64QxbtmzRq6447b6bKf/VQ+U8Hc6tlnn02//MU1Ev8NmzbL6t7xE8bTVVdeIZsveIUNh9+F3150Ul5ONj359LP0xBNP0FlnnUV19XXiHuxrbW2lTz75lJ566ilR4N4yECHwTkZGuuQBlGM6dmxgNHvaqL2tXeKKVcfosePbtuaWZgkL8evo6KSc7EzbFLRzEtHYychIY3fKDn4hPBQ9j6ed2trbjPQkSXrwHHPSKAPhQMLlcMzhZ+dk0muvvSHD+Oeddy7HvZltwe9OKfNoZGHVtbmMAQgXjSvYwR1GJHR8NRCv7Oxs+Z5MA8/BOwCjD0gHRjW0G/ihyexXrDCHa41TJNDpBHBFHqMuwm+Y8Rz5jzBg1vXTCi2XALiLNK0IG/zPycmRtETDL/0O8kGvXTADz5A/iKcuZ4irLg8IP5IwER7ehR+a/+AZNjdBOmCGf9HwIxxonmHkK1qehQL8Q1mA35mZmcKzeIWj66auf06EkXhKExfOAAhXVNTSgSXUxoI4mZ+ztTzv5HvdmwLwrgduuFeyYvlKqQQTJ06k/NxsUaToWR500EHe+UjIa/i1aVOZZP7A0oFU1K9A7DUg/FNMvRysmgUQLpQHnuyu3M3xK5XwUWhS+dmu3Xs4o5to6NBh4h6oqakR3qLiZqRzpTHsgTYOFO96wQ+78NsLDoPj9NwLL0ol/PElFxn2PuCzlltuuYXSWemJP4G8sgNHA/oRc7GYm8UK5M2bN9Peqr20bes2CRND1ijEjz32mIS/fUcFvf/++3TyySfLPC5S8jzHD/O8EBDgb1ZWJgusZvku9pBDZtMjjzwqAqSwf6GkvWpvlXw/i8bNtCmTRLmiZ9vCDQ5UfLxvRM/4CQwk1y/J8Iu7wWvXbqB6bmAcfPAM9pMrHx6APZx3EKZQavpDbdihsi5fvpwKCwtp3rx5dMEFF8gzAGmDAsYowxtvvEFXXXWVjGxAeGB4Hg29Bx98kL7xjW/I9MCzzz5LkyZNksVk06ZNEz+Qbr98dwBSD5jfiAfKGhBtGPALIzhvvvmmTHU88MADsgJ97dq10gDEqA7CuO++++iYY46hjz76SHikFakWckg/+JGXlydxg7/a/0DQzxB35A0UQCh+Wf0z+wEzVtoffvjhIuT1M33VDSM804DMwLfWs2fPNmwUQgluPPviiy+kfKO8AygjL7zwAl144YV0xBFHeNMRLD2RQscJfqIsgmf63kkgHBBkLOom8hthxCMtuKJxBjmi66YT4QTYEciXONyYn3vtGWYz4G82DAx2ZZgMBHhHw84OCGQPeJ/xBWxBjwYVLy83RyxNj8Ut3PjIl47BpQNoyOBBrJy4Zc8KKS8ni0YMH8ZM5xYyO4Z7jWIW2iXFRVwRWBnyc9VXYuIfbxiIj3EPgmJNT8EOFclUwIJA77yDK9xBUfcrKFARZSBaOSz0U9O49dnZwUo3RfzQccFz7bePtL2VuEfG11Wr18iw8mGHHqIaAAa1ck8NFRQriFNTU9Q7CCNcMgzFRf1Z+VeKwkScn3v2OZowYQL9/OorKZOV8Ucff0IvvfQi8yaZ/v3vf8tGExAwbczIoqJi+tvfWMByb37M6DGiKODPjp076JSTT5EGBD7NQWXbsH4DbS7bLIJx/vz5onCmTZ0icUBeYEcgVBLkjcQN0eNrRAR/uCAMGFBEg7lctLNGRrkCCT/5CiWDBhoIdgBWUuNzJlTWDz/8UEYWMBVQUlIiyhRK4h//+Ies3kb6N2zYIAoF97fffjs3yDZJIwND/FAaq1atIm7gymprQIej8ts5QloACJpoAX8ATHVgzcD06dPlm2OUAeTTjBkzJJ3YbQtKFc+vu+46WVOABsb27dvpgAMOoHvuuUcUL8okFu1pRa7jqvPASmZ7pAd5ALP53VCERk1lZSUVcF38/PPPZaU7VsajPGk3aBjhqsuAFszAe++9J/mMUSKkB2mFIkKD0Q7wR/uNcNFwhb9oLKHMo2yhLqARpsPX7zlJAJSZ7ikDVjexEoDGg6qbkedNuAQgLda6aXUXKfm6hgkHqIHIgV6KJuaP1wwlZQXsoVil9WjYdYHlPbjT/pn9hcIEdHj6HoBiQ6XkLFMWvRgoUK+9/j+Zo4WQ27plq7TE0Xq+6ZbbaPHS5fL9K3Y/eujfD0lrGgIaLc/6unop5BCoI0eOlNY1ehhQKlCYQwYNFEGCVjiEGd6FUIFSwdAYCrTjYC9T05Jp4cIvWBB+wJVPCTdzBmlhp4H7l19+WYbhYUYPBFfkIRT8cccdJ70WKA+kAZ8ZQTBCgGCEA1MGUKIYvkZlHzx4sOxcZe7J9AUMHTpU0oYFd0gLVqYj77788kvJ72uuUdMNUJzgCXqf+OwLUyBQWigz3/3ud6WBhHn+aCB5FQUQv2uvvZb+97//yfoE5CWA8ocyivxFAwDfZiOPsKOYHi1AY+GVV16RdGG6Be9jwxSsdQDMAlgTAL8xVYReKnrmaCgAUJSID3iJ3raLnoUozaAFy+ZZtAXRDk765aJ3AMOk6FFhOO7b3/42jRkzhg6fc7gML0EBwB6bPpx88kl00EEzZK/f4cOHywKnLBaQED5zj5hDv/jFL6R1DQU85zDVK8buTRCqGC5HLwTDL/APQ5lo+TsOo3hC4OHzIABD/SzpxGwHbD4B5QDFCEUApY5vf9F7giKBMsA2ij/5yU9EGKNhgJXUEJKoDwgHChJD3FCq6OkgbRCefQlQdug9opdcXFwsDQPkM/INilPP3R177LGiNPHtM3iH/EePE99RA2gYvf3222LuDiAPkG9Q1FCGWKWOOGqgcYP4o1yi94j8QcMOeQ6FCuU2fvx4GbHBFplID+oBGkRI4+WXXy49a01Y8Pfb3/5W+INwMWyP92AG/vznP0tDEtAK1kXPwTs8i1YOrl2GZxnaHMhOw99sGBjsyjAZMD9kmN8DrPcagewB7zPjghYfFqFgeBZyL8irQf0NB21t2ODYGDOXX2eB6LW3G8MZqSkxhYHh2a9WqfkWDM+a/cI8LFrH+IwFredoAP/SUpIpmXuP69etF4EDVO2rEkF4AitU7KQEQfPDH14kwmfhgoWylSDKIAQOeiQTJ06ihx56iE497VSZg166bBkrzkNp9+49skE+eq8QQB7mPYbiIVQgnGYceIDKbyZHNmznG/Afc8yTOE45udl+ZQllB61/8AvxB6Ag0QDAEB0WdWGoFQIV8caGFIg3hseRBvAEi7LQE0NvAsoFeQO3aGwgTfADAhpKGIoXiEdjE2lBvYHfTgzPQulAEWD4FY0OrBZHAwIEhYKGExQEFArKgeQf974HDRokQ9ngD5QVep0YzkZvzZzuQPXWbI+8CTQkaoZ+B+VF5yPyBnl32mmn0V//+ldR7HqIGPmI/Dn66KNlUxL0kKEowTdsjILhWLiFHRYc4jtrACMkaAji+2vMd4Kweh7DuGgU4f3DDjtM+IM4oeGIUYZLL71UGojmcuYkouFZNDDzWdVN35C2UzCnBY0Y8CtaeWYH57nfwwC7fCzrHuD7TVRlGWp1XpZ5gV2MnPBeCZ74RBTrq3Ds2X333icrcPGd6Z2330p/uOEP1NrSyr2MainIEIj98nPpvHPPEQGCXujJJ35dKhIK/a233SqK5qc/+bEMk+EItq3lOyQMxL+9o10JeGY6hHAStwbicTILAHYVFOTRgIHFrKDD4xuU/0UXXSSLXrB4AyutoRwQZwhhCE4IXCyMwipmLJpCjwPzfhieg6DEnCYqPNxjThTKFIiHwowHcOgBeokzZ86UeToZgq+vF8UIhQIlqVekgi94jnuUDTSC8A6ABkY8hKsVWmEiDpjDvPnmm2VvaJQ/KDHMKWt3yA8oOfQIMZeOb7SRLzpv0EvGPC7mNbF4C/OySBd632hUYcQBylUTepUIGzzBsC+29cQoBKYp0NME4LdZIbjoGSSc0kSZVeXWvxfsOOA1E4KIZzjiv2HWpmhFpjmaRt2OHvDLSgawGhYrIqdyj/LLL76kO+66RwQQeht6fg+tWXySc8ttd9CKFSvoL/f8hW68+VbpYUFYZmXieDZ8+/onWWGJnjxOf0HqIVgmjJ8gQ7IXXXyRCLAn/vOEDP3FA+DbO++8R8888xyl4JuiEMDRcRCmmO/CzlCLFi2SxUsYgsMcGYBeA3odcIuhRwhebY/eJHpb6MlAoII/+G4XShQ7UaG8xUtxOlmWsQgIc3QYOYACuOyyy+hnP/uZKBAM26JXhbloAA0pfO6FI/PQcICihRsAacZ9PGHmJxbuYAgZPWUoLZRVDKejR6gbdQDmHaH8fv/733sXBWlAyWKaAqMN2KwEDR7de0dYdgTA3auvvirK9cYbb5TP0PTzeOa7i/Ahn5wgM9B9xbXLJydwxC0gmDWJneUeQEtJw2TNss90A5gfMsx+ANZ7jUD2gDzDY6OAeTzq7MGBJUWysCYYgvkbCOZXcDB1ZmY6gnYcCAdcbfGo778y8Y1ilOFov7CRAQQDVrOCNzot+M4Rnz/g3FAoKW2PdOm0wU7bBwIO6c5MT5WditBqHzSwRBT9zord0qKGgMQcEOY3YcacJnoZ2LgewgJDesXFRTKUrKGN+G4VygOrnDX21dTJO9jnF/OegOaZ+J+lBHM4+YNwrMlDel999XUZSrzE+ExH+aUEGRQdhrO0UESvCUOKeAY7EPiA+gF36EFDmYAXiDfSg2G8/2/v3GPtKM4DPr7ve+2Aa4N5VGpURTb8UR6JQTxUGtMoUSBu/6Ctm5DgRGmFkj9CIPSPUlpFVuo+hGgCOK3aFKoobSE4kIfiBGHABEzkQgMYE4pBSQEVEEVQMNi+99yHO79v97t3vHd3z55zdo7vPff72XPPPmbn8c3s9+3MzsxyHdfgD4NBVy11mSkqyApUgUI79bYIDQsDkchsdDaeVtGweCAgD/ouljzruznKm5YXD0A8MJBf4sM/9Rx9RD1ktSy6sxk0RI8C55Si/OtxwqNskLful8F5wtdyBL2GMMPr2VZ9h7woOx4AOB6eC9FzRemGsnPUIXRaaHzrol2ZtYrGE9YziJEXQGbIS3sq6oinR40mhcKE8KHoRpO4JiYWodF82RvNq9s3mlrSHM4mB7/44VenwxIP21oWfIR6eLB/dh8DSb7Uf3r4KDim8aI6w/BDmDTBG4w6jSYPRsh/LJ2rm4Q1ZzS5+bUecWOW1SnSxL2SVawc5zp9/xKGQ9woAFrqeQq5UzSeTowm/qumDYOprcyQUAb4YZ4mD1L0JpA2VX4YqaK4NC+kp4oBCGUMReGGDzW6TzpJF9vai9Ipmp4sZjSrEcovhtGs/+4zeh6q5LuHxmX6iBo96qLWRwwg29Tdvft+7t546+3EKPpzWp9RMsA+jksxgPt+/l+yoATeUq9iTMW4+238aVsD/+8cPOx23r/Lff+HO9yunzzsJrwxDl/5S/jpdieUrY6EEqVlqe+88Ifi4X0W0D2p0w2Amzi8eel+ZKAPx1HCtNDwTzj4U2XOvj7cLkSQA92ajA7WNGP4yD/KCzTfnNc6QK+Dvr8M84ZR5d0wBhO/KD7khLz0waJOiFtlHrJnzx5pCRMneaRcmTuclwa9XvORDSsvfFD/ReeNhYMZTaMluJ25vXnvsv79Z7lf/uKXUokwYDi2OX/TzTe7p59+xu17ep878PYBOYYeVb9jvmUO7OO2bv0r9/Krr4lCeu1/X5NzwHX451Ui2zj8K3wthoXwH//Z4+6mm25y11ydjFKEQd+SHRsZnr2GcFLd1DIP7HrA3fntO5OdjE5DuTN4h3dbCu+4WFgfA8hAEjUaSqhwadkzallhkQM1sihRFDVOn5ZhoSpX5mQyIhR5AOXDFCFGw4IaB1oY5Jv5qLz7xDABcskzRnqMlXl0RHYMkKk6hfTzXl1hpCtfRFIol3AOLWUFWnb8qoPsMT2uhPthOrL+jGNDqH8Moyl6EzMy8NLf+V1ZDg/2PPqfbtPHL3cfv/xT7p5773Pf+MY3ZJL3yuNXit+bt/29LLH3T/98m7tv14Puhhu/6v74ys+5LV/Z6p5+5lm3bdvX3R3fvsP1D/S7FctXuLu/9wP3yc2fFj+vv/l/7u++drMs8XfZ729yP3n4kdmKy8AJvkW65ct/IXPeXnzpRTn+tzfc6D7zmc+6P/2zP5dXDlv/+m/kQ+D7fMsX49kqKLq5bjH5OYqs8mMbY8rEdt5Z8j6OqSWbN292119/vRhRlSV+VdEqGAlWxOGBgFG3vNfjGvJ4xRVXSLjZa44loXJn+gwLWACDfuheZdAT804ZEMSIVB4KmFLEV4XIKx+Av/LKK2frEwOpGHGMDADZMRqZUaWMLK4T0q4uu083ItOHaC0DU184xvtoWtFMJaE89DjppozJN1NNGMjD8oDMveUBgW2+qLRjxw5pbVO+DJCiXKnLLJmIn+uuu07ed1M3wnQZxx4zmkZLDPYtc0/s3SeDYq790rUyUhZoZTG9gjVkZU7hBRfKaMgdP9ohShGFyZq7GMZVv7JKutsY/cpxBogwLeOi37xIlM+9O++VJea2/uVWWSSB6Su7fEvv9NNPk6H9fDJNwRjtvG+nN6hXi1JlNKOqFlaTYRk65gDeeed2mf/GaEjt3q0KS+cxPWTTH26S1nKR6tIuSaC7llVhmFrCSGLkxTQGFjRg/h8PFWpks8qQ87TMGHXJggfETWuMEbgoYpZzYzQycgsN9UKAfDNqlNYyU0UYDb1hwwYpAxYKwGgy7xSjzwhTWm2826IbFuOBMcEf3aEYVIwVrTwewHjYYEAU01bqJiyDsFzoMWBOJgOUKBPqO0sZUqcZDc3ArksuuUSWvaP1yXmMPQ8JjK4lH0wnIs28n9WR0Rh/zmN4mXbECGrKndY39RgZMTfUWHiY0TSk+1LRgRhZXcy+HmN5O95B0UXLyM4f/ugeMYJM8N78qctlGThaFzL6c+aIO+/882SC+9XesK3/wHr3gbPPlEnjdMVi9Bh0wLw2FOJx7znOveKNASutMBr24os3yML2fMD70ks/JisBhQqOp/EP/faH3C03fc098/RT7qm9T7ldDz4k3aJM1TjxxGQEKhPpaREc957lYgQJAhfmqwiWzuMdZTJvMt8/cYTdp3Q/olDJH6NDeZDQLltkoaNhFR14AXT1ERbKFZmSZ8qF92j88u4UY0PLZqGBEcDIsPoNrahzzz1Xps7w3pJF9Vn5iAcXjCT5JI8YIAwRcmF1JFrVGFpa6szzpEsWGTKSFgMVI99JnZ8rWN2nXHGbNm2SKUTkYePGjVLvyBPGkJHozMUkDzwI8sDH4h3MUyWffOCexQ7oKaDOU5cYUUw5YlDxw8MVdZbRxPhhLme2joCmB2ccGwqNpi+WdKucGIVnFWJhobqEX6aR0LLbvn27++qNN8hKJcxno4XHAuWfvOLT7q677xKFw6LlKAGMBcruH//h66J8GByEUqElytM33VZ0TbGwOQNJ1q07zRuoN+Sbn7fcss2ds/4cOY6ywYUtDRTuw7sfdrf+yzfdl7d8RYwvrZ09/7FHwn/55bnwUXgMKgqVY1PSqkgX879+K3mXlr1cw2MADK1JuhTJC8qdvNPKxGhjEDAmHGNwi4I/Fq6nZUGLEplgHMkHeSXdyJEwMMZ0F/KQonM7FxLkhYcLVpWiS5WeBx6sdEAPBhWYeoJfehYoU8oHaJ2y8hHzW2lp0/piRDctL3oNkFEMo6mosVToPaArmfp79913i8x16gvlgfHDuFG21GnKjTqOoaerlQcGWpd0V1O2+GU+MQ90GFpap7hHHnlE5qISPksnUr55RtM49nS8jJ5uh78QbPqWTLAD4UlPeJ1S9Zgi54LTMzPJcPAVy8eamv+ycIsIL6GC81WQGGi29IsdxNPuI4WGxTJ6B9454C48/3wJS/PCMnq8i0HR8RWWEL32wIF3ZE7huevfL9euXbtOFAbGk0Efp51+mrvyjz7rTjn1V0XZozxRErQYzjzrbLfBtxxPPnmNtKSe8emgC/UE3xqkRYmB4P3kBRde4A3eb3lF831pcfCx7VWrT5BJ7ygsWhzvfe+vSXo4Pjgw4JXuu761NibfJyVto2PLRTER/vHHHyddnCiwbDmF5QjsZg6Jn7fffkc+l0YXcQh1h9YV3XE4DB37GDZag8RJ/jEWOLolWQGJVX5QvFyPAeEaHNBVzWAaDCx55R0hLQ/ebdLCYbEEJttznYbRKRoG4eHCVnMVuB5HWmlJshAARgUDyDtIlqAjT/RS0HKmVYZceBggv9QpypbeCZbL4/0xBpN3gpzH8NCFidx0beMiQnlgYDtZEg4dwgITlB3pppVJ3BzjdQTvKhnNy3tIHtJoSTMIitWdqHN012JIWWqPfNCKxiiyTd0AWty0Wume5hUCXdHERY+NvrcmT4TDfox32XXKrAyNp916VoUwLyozyrEuCudpsp18GNhvpwZVnRzLbENYmOkhoatGU7ouKHibp5lFw8rO05QpIv448zS5cZMVeOYmeIdoCWsS8iTHm725mpCAf/wSH3KiqmT9FMGXZBhEpGGAfl1GP3AdEsYfXsM2sgvLSausHsNvNk+ynx70z0eO54nEezK1AMVPd3RZPSKt4f3BPnBN1fpHPGE3bp09MpoGFCaKpp15mpDNSzbfCq1LZBbCw2eecss7TrhFctPjpJ94OplzqGHl5SM8VpT2Mmhlb9u2TbqoeVhgEFFImF7SQfcuDxM6IK1O6pRZGRpPWM+gzng0DlCZqXGuI575tdkwMlDP1KHqqXbq2McQhg5/2WMYK36VQ4fG5/kJHeFq2NwDciw4r7CNAcXpOU0nqweN+wca9ef/t4eP/4X/fsnt3bvPK8YkHSEoThQoN6Q64BjKFEKFy3lubHVKeH3WEVaW8NqFQjbdpDF7TMkex6/KkV/dDuWrx49F3omX8tQ0AGmihyCvy5hzZY5eFd5/8qCqBjMMHz/GwqNHjaavlOmWUY1QBTW7WTmLF3VyLNhv7vwfyNF7Wb9llCnOuTOdKVdNw6OPPeZ23rsz2SmgE0WuilSVZZ7rJchPaHh0G0IZsK37oX9ctwjj0oeALHos+1sGfngHT9e05pMHBOJQZyw8estoSj31FY0KJ79ylN3a3WJD0j27ncpHthOxiUtvdLlx/a/6z0PlgEsOVHezyiBPr6SnmpHEnXg+Kh0lqB4Tv+k1HCvTbxrsunVr3fpz1st2tbiSQDWN7KsLyR6rqijzwloMaP6yxiHMd/Z46MLz3SIbX952WBatlIuWYzaOhYKmqy5XRJ7fdl0Zef5bdb3X0vQy81lLMjir8owsyCeE+9zfvrKdOSX76vLgOO9Fq7qicIBTZedDqvrLo/Kl3iM9rGeffaa7+OIP+tZAK+lL6mFVJar+i9xiJ8yDGk0I81jVdUI7RiqMO3R6zlg69J7RrP6QZxwjFpuO4T3m88/9wj3xxF6v7JMHDGNxkGfQMNi7d++Wkc56vsqDjRrK0OlxY+nQo+80u8fivV/KlIRXCOnWYqVuu/bEk0+6+3bel+7lU7VF2WtkDUmRCwlbmpD124lT2A5HtIbnmeLBakusLsUxTc9SLUOjOkvCaHIfcCvIbxTn/3i4H2t3EnJC2H3aqptP7kFP8o6FIRfEdnQ+63OzZNJZmyNov9GKEuSaIs4//zz3sY0bZZvw81CFvNgI053dLnPqh5GjzB9lXm6ZYwEDHFNn1D/buvBELEccGg+O+cAsdcdcRJb1W7t2rSyakKz41Cd1Rp0OQipyoL9KVk51uCx5fjpxCtvZ/MQgjHOx0VvzNAO4kVn8+6QTT3CTzEcooSzcZlDBiGt0NPmWntS39oObB0GRvkZjUsJnPigLHYhFayWe9D4Y7F/m/v2OO2WVmi9dfZUYRyDdfLibRQr4WsjwMJOb49xAhMkw/WSeXv0yI699fcvcRKMhGRsZGXZT0z6nTbKiScgmZZm/D7TB0mgwHw/FmjxWUDas8MOSb2zHkBcQblLPRmensdQN9y8fh8ZQUDZV4kFvMIGfFXyy8y6z6H2W1OfGrM6JKTdkxhw9HXmrMGr1/vvvlwU5FJb9Y1Ur/Gt6NM1FhDJjbmPMsmH+JGlrdT5oK5Bv5jaSl6zM6gKZUi6EH7M+Ew954eEImdVVx+YZzYOHJ0ThsJ01mqCGkX09Fv7ObcuP0A2jCeF5CoVoV69a3bRQmoVbhiizqUk3NjoWr5L58mhMNCQujPM0BqBlEuPEJ7m++a1/k4Wkr73mi/OM5uc//7n0I9QYgeR43ZAPFA1Ktq6KnEWMppfZjDduY/7G5KPXVZCa4JMU1oiR0SH30EO7pdWyceOl3khSFswVTOoONyZGk3sjVn6knvk6TTyx4iAvqsyqGk3yTP7xW+X+VMdDEzqH69mPkSeVWdZoEif1j5V5WLaPBfX5WgmrFuEvzEe4nUXzQljkP6bRJB6MphqAWCCz0GjGKBfy0i2jyQOtPmjUlZeeNprk45ST1sg+4ioSWbNwyyDMSd8KHBlKV5xIXfshJmgYGs7kdNJVNDyY3DBFeWkG4W2/67uyyPQ1X/zCUUaz4WV21Reukq6qwXSlnXbjaQaGR7+pSRya307QMDScxlQyGX10eK5smlGUhu3b73IvvfiSu/ZP5r7XqYQ3ZkyIJ/xuYwyQFy7WMmoK9ycrtXRy71UB48yDRhYeDPmKypYtW9xll12WHm0P5EV+YpcNeUFmsesZRlNX6olFt2TGPVP3KkqJZuxZkhsSwyCK2f+p3fnAWbPVbx4VDz2onbjZMHx4ED71cSzrv4rz/4WiJy6kxTmJi23Zr99JWvyG/4kqM8mLdKMmx7L+ixzhhA74ksonLv9EsjN7LjkpeVGPHt2vwyl55+p0CmWPU/L8tutCwvqcJXtduy7MS3gc+LA0axOrwQzPV3VKNi9Zf524kG7Ew7bKTMn67cQp3ZJZ9ljor13X40bTMDoHHbJq9Up36qkny3Zhc9Rom1ApxYY4+KKIbncjTqN3MKNpGE3gjcTu3T913/vuD2RbmsZG7agBq9vlUXbOMMroaaMZ+31Jr2EqpBgGTr3y6iuybXLqHLrnwm5AM2LGYmFJGE3eUxnVSRRYumOILPgiBd+z1H2jPdQwhkZSf+0h11gMWPdsm3B/qwNue+799P6vDQlTfkMlIz9xkDwxCjrdN0QWK48/Xr7Sr/u9htat2KhhTOrYnCB1PzxmdA/VL92qB4sZM5qd0oV7PKzG0au03TO5/PjH97jbbrtNtntZr4eKM6YCLTOOoQGtwxmtEZa7GdH5mNHslB6qU6ZeckjLt6+/b3aOsmEYSxfTAoZRgY9+9CNu8+bNyY49fBvGkqWvSldMO0308JIjpmUWBVZKOaTN77feOuBef/112bYeK8NYulhL05gHDzlmGBJUDizu/Z3t35FtE41hLF3MaBrzWMY/e8EpqBhOWH2CO/XUU2XbRGMYSxczmoZRhreQzMH/4IaL3B9s+j1peabfMTAMYwlit78xi7Wg8mHQ7Ouvv+FefvlVaYFb17VhLF3MaBpGBR588EF3++23p3uGYSxVzGgas1gDqph169a5c845V7btfa9hLF3MaBpGE3inedZZZ7gNGy5y09P2aGEYS5neM5pBK0BbBNYwaA2bchLg5cA7zWeffc49/viTrr/fapNhLGV6zmgm0yWWeaU/t6QCxhNVJ781uV7mWGQvT8btuiLy/DZzKoynnnrK7XpgV7LThOzap524IvL8duo0XGNxkC2/Op2Sd64TV0Se33ZdGXn+W3U93T3rs5huGZWQVpWvElI50mNLHJXD+vXr3Yc/8uFkxzCMJYsYTaxnHnUvrTdL5tqOwiolVri9S39/vzxsmM2cg3ea73vfr7szz/wNNz2dHjQMY0nS0y1No5jBwUH5pQLgeFU3OjzYnS95LLJnGUSyd+8+9/BDj/iHCn8gk/54D32GYSw0etxodqe9pP3cGJ4YTsKmBUi3aQfxaGGj5J9//nn3wkv/4372xN7UPel+uudR9+abb7rhQVqbc8a0bjfgA8Y4+02JI4YDKZd0+Z7s+SJHmvJ47rnn3KOPPZrseE90zmgPjZZNTCQvyMz/xoyLOPTBSeOqy4WwHysedSqvWHEoYTyQ9deJCwnLJhZ58cYgK7NYxIhn2f79+4/oTU8EBw9P+N+00PhHhOk5CAtNtzVRck26DcGmhHUU4UlPeB1k9yHvWEgY/8TEhCizVatWuanpKYm/qEXQLNwyCHNqasqNjo66GfrxIkD6Go2GbI+MjLjpDvoIaU1iHG+99Va3YsWKWZkQB3I6+aST3fXXX+fGxxtybm441RxIq6htVXRO5K9n/M/k1KQbGx0T2XF8Xv1omyQWjCUyI1/IjHiSlJXHs2xe4o+44eFh98ILL7h3333XnXHGGVK3kirj0+03xsfH3dDQkGzHqgOUBeVOWjop/zK4n7WejY2NRYunWzKDyUlfzyLnBZlRPhqP3lN1QjyHDx/uSj0jP8uXL4+aF8oFVJ/Fiod7FZlRt+uSWc8ZTYnGy5+CJ31r1qyZFVZRwTQLtwzCpAJgNIm47rInbSSv0ZiUfIyOeqU54yNpMx7CoCVZxnjDP2QEsqwbzFpjoiFKBvnVfcMkMvM3TGPCzUzP+Hh4oKkWD1nOqw0DNI89ExOTUq8QDzkhHpQZ3d0DAwO15yUEQ4OSiQV54b6hjqA0+Y2RH+R36NAhkRcOYsRDmMiMehYL8oJi5qGMh9CYMjt48KDUM/R1TCgbyh/qzovem9QzZBZbB2g9Q251xdFbRtOnGyWPcDBk5OuUk050+nxRJLNm4ZZBmJOTDTcyPCT2peayFzGRusZk8jQ2MjQg+ak7HkB8Bw+NS2uGOhALkj4xPuFbmsOJzPRgTSAzauaElxmt5+Ujw5VlRq6zOee6o6oI+3O3wVFGE+pUAFo3CbObRlPjqTMvoPlBZqrMoO54gDCJJ5bR1Lyga7S3CWLLTOtZnYT1LLbRhJgy0zggRj0Lbv1eAaGkgpmTXVTCcgjKqza6lI1jxkLP37wy7fUCiUSozIxqmMwWHj1oNMEqmmEYhlE/PWo0jbax5w3DMIxCetRo1tc/XokeMjS8e6bf33qFDMMw5tODRhNtn2j8eYOPYkAUgY2u+b250OVHAMFs5tLE3qEtLOoeiGN0Tq7RLCunvEKMUbBthZlewo2vTvbV1agPCEtcuk/UMeo3YSZhJ8OyY8VjLG1CY6n3Xoz72midsByyus3oPvZO0zAMwzAqYkbTMAzDMCpiRtMwDMMwKmJG0zAMwzAqYkbTMAzDMCpiRtMwDMMwKmJG0zAMwzAqYkbTMAzDMCpiRtMwDMMwKmJG0zAMwzAqIkazzmWzbOkto1UWXY2xKm4YS5al2dJk2cZOXY+SrG7bXWbFmZVxq46f9DcPOVfi+KlEZY/xsLVHW8dk1joms/ksOaNJHaAadOp6lmPUiqqlXPjThHnXhM7/qerK0AW163Bl5Plv1x1r8tJUh8uS56ddV0Se306dhhuS9dOJKyPPf7uuiDy/7boy8vy36uydpmGkWK+rsZCxV18Lgx43ml2oZOUPNkYedu8bhrFI6XGj2QWL5g1A+B7Qt96TaGt0/PAndjzzyPNTg5O0e7piO1uIJE2WkUJXlFGNXpJVN1q0i1ley/bv33+kr6/P4cjIofGG/Pb1LfNKJOnD9X/kvFzgtzXDegzC43O/8iMQ1lGEJz16TUj2WJ6fkPD85OSkGxgYcGtOXO2mZ5LoiupCs3DLoII1JhtudGQ4PVI/pK4xOeVmZo640eFB57MTBeI5eGjcDQ0PucH+PomnfckUQzmMj0+40dFh2ZZyqTkiX33dRGPSHUFmI0NuuoIeWJb6qZYUPB+Re+DQoUNuaGjI9ff3S32IgdSzRsONjIxEi4O8EMf09LQvm1E5Vmdc4X12+PBhuT9xMWU2Pj7uxsbGostsZmYmatkgO2Q2ODgYvZ4Rz4oVK2Q7RjzZeobsYqD3JjKrs571tNFkf+XKld5oTnsl2lcotGbhlkGYU1NTUvhxK9mED9vJjUlliwHxUMmGh4flxoxVmWFiAqM5KnmJITPKlIcZ6h0yo4yqQE2oVhtI8xGJB8WMzNiOkRfQekY8scqF9HPfAIamqsxahXjUAFDnYsoM5RxTMavMiEvrcwy0nvFwFruecW8uX748al5UZjH1WSizOutZTxtNbso1J6xq2jJrFm4eKn9+KfThQf/0lxyqFcIkdVO+uUw6B3y51B2Phkc8Ew2vmIcGZLtMbq1LbC4eZDY1FV9mk1OJzAb7q8usnXyhmLkxY8INjxGjTseEOJAZD00x6ZbM0AOx40FmqkNjoMoemfHQBBxrR28VQXgaD/mJJbMwDuQVq57FlFmcUj7GIJhQOGzV7vwfdQrFlBRV/cwEBR4rDoVYiuLQ43WlgXDqzE8YFjcJD3+ynbo60RtTf2MRO/yQRGbx1EK3ZVanYSmCuGLFQ9jdkhmEccSMj7Bn9VnN8RCehhkjD73Z0vQ/dMcM9A9Ues/QLNw8ji6UI/6JacDHOe3DqlfhaDzkR8qIluZM/U+ZCnkYGBic152VRKdxavytpSGUGY73DLTSCauu/EjYpM//m5WZD3vmiN+uUDaSCp/M0tQsI/0zEhdhkwfyQny15yWNQ7ejySyNh7CRGS5mfkxmcxBOERoPqMx0v678hHHotspM7586COMJ702O1ZUXCOOJIbPKRlMjUwdco4TH537lZxbvI93yZE7qNSFVjylyjtOpgEiftNDCeHMoC7MqvpiaxrPY0MonDkuSiLVtMDRzJDcLIkNudZQBzKbVo+XBMakaEkd5PHK2ST59yv2/xGjKvg833A73OyUMJ0Y8GkYYbjbOOiiLh+1svJ2QTX/d8WgYYbjZOFsB/7G7w426cO7/AX0WBOLKFvbEAAAAAElFTkSuQmCC;" vertex="1" parent="1">
                    <mxGeometry x="20" width="607.99" height="455" as="geometry"/>
                </mxCell>
            </root>
        </mxGraphModel>
    </diagram>
</mxfile>